<?xml version="1.0" encoding="utf-8"?>
<!-- Generator: Adobe Illustrator 27.2.0, SVG Export Plug-In . SVG Version: 6.00 Build 0)  -->
<svg version="1.1" id="Layer_1" xmlns="http://www.w3.org/2000/svg" xmlns:xlink="http://www.w3.org/1999/xlink" x="0px" y="0px"
	 width="256px" height="226.3px" viewBox="0 0 256 226.3" style="enable-background:new 0 0 256 226.3;" xml:space="preserve">
<style type="text/css">
	.st0{fill:#231F20;}
	.st1{fill:url(#SVGID_1_);}
	.st2{fill:url(#SVGID_00000164489709268444212300000006335852544655840678_);}
	.st3{fill:url(#SVGID_00000123427667059472361710000009822103016786161033_);}
	.st4{fill:url(#SVGID_00000110440878244977370970000007200851445718235806_);}
	.st5{fill:url(#SVGID_00000125579848380364660250000000045089939272050580_);}
	.st6{fill:url(#SVGID_00000172438126815202341590000009573327674988647076_);}
	.st7{fill:url(#SVGID_00000151529234413802575100000017431550795786148533_);}
	.st8{fill:url(#SVGID_00000048484836078630144830000002915864869308066719_);}
	.st9{fill:url(#SVGID_00000060006970921097938340000011384527343716719030_);}
	.st10{fill:url(#SVGID_00000125578750848395434360000009587597653637260955_);}
	.st11{fill:url(#SVGID_00000077294251658898961530000003702011251000867501_);}
	.st12{fill:url(#SVGID_00000075136039437203705730000010454394588940011139_);}
	.st13{fill:url(#SVGID_00000121990156977430449250000014456615127084821652_);}
	.st14{fill:url(#SVGID_00000139257163660211540420000016515519487055804856_);}
	.st15{fill:url(#SVGID_00000158716016040502268390000002677250496787731362_);}
	.st16{fill:url(#SVGID_00000031919171107486631370000003695937474436644503_);}
	.st17{fill:url(#SVGID_00000062871934861400823630000017351696579757567674_);}
	.st18{fill:url(#SVGID_00000139254344007953843400000010885221000285566090_);}
	.st19{fill:url(#SVGID_00000117658891374537722100000009506932520670322066_);}
	.st20{fill:url(#SVGID_00000067922267035223334610000006084790787612110496_);}
</style>
<g>
	<path class="st0" d="M0.2,164.4h5l7.1,28.8l8.2-28.8h4.7l8.1,28.8l7.1-28.8h5l-9,35.7h-5.1l-8.5-28.8l-8.5,28.8H9.2L0.2,164.4z"/>
	<path class="st0" d="M48.8,199.7v-3.8h11.4c2.2,0,3.9-0.3,5.1-1c1.1-0.7,1.7-1.9,1.7-3.8V189c0-1.6-0.5-2.7-1.6-3.5
		c-1.1-0.7-2.4-1.1-4.1-1.2l-9.1-0.4v-3.6l8.9-0.4c1.7-0.1,3.1-0.4,4-1.1c1-0.7,1.4-1.7,1.4-3.1v-2c0-3.3-2.2-4.9-6.6-4.9H49.9v-3.8
		c4-0.5,8-0.8,12-0.8c3.1,0,5.5,0.8,7.1,2.3c1.6,1.5,2.4,3.6,2.4,6.2v2.9c0,1.9-0.5,3.4-1.5,4.5c-1,1.1-2.1,1.8-3.5,2.1
		c1.4,0.3,2.7,1.1,3.8,2.4c1.1,1.3,1.7,3,1.7,5v2.3c0,2.7-0.9,4.9-2.6,6.3c-1.7,1.5-4.2,2.2-7.4,2.2C57,200.4,52.6,200.2,48.8,199.7
		z"/>
	<path class="st0" d="M93.3,182.5l11,17.6h-5.4l-8.7-13.8L82,200.1h-5.3l11-17.9l-11.2-17.8h5.3l8.9,14.1l8.3-14.1h5.4L93.3,182.5z"
		/>
	<path class="st0" d="M114,200.1c-2.2-0.2-3.9-0.4-5.2-0.7v-3.8c2.7,0.3,6.2,0.4,10.7,0.4c2.3,0,4.1-0.3,5.3-1
		c1.3-0.7,1.9-2,1.9-3.8v-2.1c0-3-1.6-4.5-4.8-4.5h-3.6c-3.2,0-5.6-0.7-7.3-2.1c-1.6-1.4-2.5-3.7-2.5-6.9v-2c0-3.3,0.9-5.7,2.7-7.2
		c1.8-1.5,4.5-2.3,8-2.3c1.6,0,3.3,0.1,5.3,0.3c2,0.2,3.7,0.5,5.1,0.7v3.8l-1,0c-4.1-0.3-7.1-0.4-8.9-0.4c-2.2,0-3.8,0.4-4.9,1.2
		c-1.1,0.8-1.6,2.2-1.6,4.2v1.5c0,1.7,0.4,2.9,1.3,3.6c0.9,0.7,2.2,1.1,4,1.1h3.9c2.9,0,5.1,0.8,6.6,2.4c1.5,1.6,2.3,3.6,2.3,6.2
		v2.5c0,3.5-1,6-3.1,7.3c-2,1.4-4.9,2-8.6,2C118.1,200.4,116.2,200.3,114,200.1z"/>
	<path class="st0" d="M137.6,164.4h4.9v16H159v-16h4.8v35.7H159v-15.3h-16.5v15.3h-4.9V164.4z"/>
	<path class="st0" d="M180.7,164.4h6.2l11.9,35.7h-5.1l-3.1-9.4h-13.7l-3.1,9.4h-5L180.7,164.4z M189.4,186.4l-5.6-17.7l-5.7,17.7
		H189.4z"/>
	<path class="st0" d="M203.8,164.4h14.3c2.9,0,5.2,0.8,7,2.3c1.7,1.5,2.6,4.4,2.6,8.5c0,3.3-0.6,5.7-1.8,7.1
		c-1.2,1.4-2.8,2.4-4.6,2.9l7.1,14.9h-4.9l-6.6-14.2l-6.6-0.1c-0.4,0-0.8,0-1.5,0v14.3h-4.9V164.4z M217.3,182c1.7,0,3.1-0.5,4-1.5
		c1-1,1.4-2.7,1.4-5.3c0-2.5-0.5-4.2-1.5-5.1c-1-0.9-2.3-1.4-4-1.4h-8.6V182H217.3z"/>
	<path class="st0" d="M235.7,198.9c-1.5-1-2.2-2.9-2.2-5.8v-21.2c0-2.6,0.7-4.5,2.1-5.7c1.4-1.2,3.1-1.8,5.1-1.8
		c3.8,0,8.2,0.1,13,0.4l2.2,0.1v4h-13.8c-2.6,0-3.8,1.3-3.8,3.8v7.4l15.4,0.3v3.8l-15.4,0.3v7.3c0,1.5,0.4,2.5,1.1,3.1
		c0.7,0.5,1.7,0.8,2.9,0.8H256v4c-5.6,0.4-10.5,0.5-14.8,0.5C239,200.3,237.2,199.8,235.7,198.9z"/>
</g>
<g>
	<linearGradient id="SVGID_1_" gradientUnits="userSpaceOnUse" x1="93.9941" y1="120.6929" x2="177.9442" y2="35.257">
		<stop  offset="0" style="stop-color:#3189C9"/>
		<stop  offset="1" style="stop-color:#5BC0A2"/>
	</linearGradient>
	<path class="st1" d="M162.1,45.4c-1.6,1.6-1.6,4.3,0,5.9c1.6,1.6,4.3,1.6,5.9,0c1.6-1.6,1.6-4.3,0-5.9
		C166.4,43.7,163.8,43.7,162.1,45.4z"/>
	
		<linearGradient id="SVGID_00000115482109737415538110000015662768694800254901_" gradientUnits="userSpaceOnUse" x1="80.6378" y1="107.5688" x2="164.5878" y2="22.1329">
		<stop  offset="0" style="stop-color:#3189C9"/>
		<stop  offset="1" style="stop-color:#5BC0A2"/>
	</linearGradient>
	<path style="fill:url(#SVGID_00000115482109737415538110000015662768694800254901_);" d="M182.2,30.4c-6.1-6-14.1-9.3-22.7-9.3
		c-8.7,0-16.9,3.4-23,9.6l-31.9,31.9c-6.8,7.1-6.8,18.2,0,25.3c3.4,3.2,7.9,5,12.7,5c4.8,0,9.3-1.8,12.7-5.1l15.2-15.2
		c1.3-1.3,1.3-3.5,0-4.8c-0.7-0.7-1.6-1.1-2.5-1.1c-0.9,0-1.8,0.3-2.4,1L125,83c-2.1,1.9-4.7,3-7.5,3c-2.8,0-5.4-1-7.4-2.9
		c-4.4-4.1-4.7-11-0.6-15.4l31.9-31.9c4.8-4.8,11.1-7.4,17.9-7.4c1.5,0,3,0.2,4.5,0.4l-9.2,9.2c-5.7,5.7-5.7,15.1,0,20.8
		c5.7,5.7,15.1,5.7,20.8,0l8.9-8.9c0.2,1.2,0.3,2.5,0.3,3.7c0,6.8-2.6,13.1-7.4,17.9l-37,37c-7.5,7.3-17.3,11.3-27.7,11.3
		c-10.4,0-20.2-4-27.7-11.2c-15.7-15.3-16-40.4-0.8-56.1l41.5-41.5v4c0,1.6,1.3,2.9,2.9,2.9c1.6,0,2.9-1.3,2.9-2.9v-12
		c0-1.6-1.3-2.9-2.9-2.9h-12c-1.6,0-2.9,1.3-2.9,2.9s1.3,2.9,2.9,2.9h4.2L79.2,47.4c-8.8,8.8-13.7,20.5-13.7,33
		c0,12.5,4.9,24.2,13.7,33c8.8,8.8,20.5,13.7,33,13.7c12.5,0,24.2-4.9,33-13.7l37-37l0.4-0.4c6.1-6.1,9.3-14.3,9.3-22.9
		C191.8,44.5,188.4,36.5,182.2,30.4z M171,54.3c-3.3,3.3-8.6,3.3-11.9,0c-3.3-3.3-3.3-8.6,0-11.9L170.6,31c2.4,1.2,4.7,2.8,6.6,4.8
		c2.1,2.1,3.8,4.6,5.1,7.3L171,54.3z"/>
</g>
<g>
	
		<linearGradient id="SVGID_00000012464047222784972800000017663467815755697584_" gradientUnits="userSpaceOnUse" x1="27.4723" y1="221.0099" x2="228.2548" y2="220.2014">
		<stop  offset="0" style="stop-color:#3189C9"/>
		<stop  offset="1" style="stop-color:#5BC0A2"/>
	</linearGradient>
	<polygon style="fill:url(#SVGID_00000012464047222784972800000017663467815755697584_);" points="33.6,224.1 33.6,224.1 
		31.8,215.9 29,215.9 27.3,224.1 27.3,224.1 25.4,215.9 23.2,215.9 25.9,226.1 28.6,226.1 30.4,218 30.4,218 32.2,226.1 34.9,226.1 
		37.5,215.9 35.5,215.9 	"/>
	
		<linearGradient id="SVGID_00000137122030186927321040000006606615047819916972_" gradientUnits="userSpaceOnUse" x1="27.4722" y1="220.9859" x2="228.2547" y2="220.1774">
		<stop  offset="0" style="stop-color:#3189C9"/>
		<stop  offset="1" style="stop-color:#5BC0A2"/>
	</linearGradient>
	<path style="fill:url(#SVGID_00000137122030186927321040000006606615047819916972_);" d="M46.1,218.7c0-2-1.3-3-3.2-3
		c-1,0-2.1,0.3-3,0.7l0.2,1.7c0.7-0.4,1.5-0.8,2.3-0.8c0.8,0,1.7,0.4,1.7,1.4c0,1.9-3.5,4.8-4.4,5.7v1.7h6.8v-1.6h-4.2
		C44,222.9,46.1,220.9,46.1,218.7z"/>
	
		<linearGradient id="SVGID_00000070120775084405249420000006083621668615619263_" gradientUnits="userSpaceOnUse" x1="27.4727" y1="221.1129" x2="228.2552" y2="220.3044">
		<stop  offset="0" style="stop-color:#3189C9"/>
		<stop  offset="1" style="stop-color:#5BC0A2"/>
	</linearGradient>
	<polygon style="fill:url(#SVGID_00000070120775084405249420000006083621668615619263_);" points="59.2,224.1 59.2,224.1 
		57.4,215.9 54.6,215.9 52.9,224.1 52.8,224.1 50.9,215.9 48.8,215.9 51.5,226.1 54.1,226.1 55.9,218 56,218 57.8,226.1 60.4,226.1 
		63.1,215.9 61.1,215.9 	"/>
	
		<linearGradient id="SVGID_00000103260681139968519960000010506568092910601644_" gradientUnits="userSpaceOnUse" x1="27.473" y1="221.1859" x2="228.2555" y2="220.3774">
		<stop  offset="0" style="stop-color:#3189C9"/>
		<stop  offset="1" style="stop-color:#5BC0A2"/>
	</linearGradient>
	<path style="fill:url(#SVGID_00000103260681139968519960000010506568092910601644_);" d="M74.1,215.9h-2.8v10.2h2.8
		c3.1,0,5.9-1,5.9-5.1C80,217,77.3,215.9,74.1,215.9z M74.5,224.5h-1.1v-7h1.1c1.7,0,3.4,1.3,3.4,3.5
		C77.9,223.2,76.2,224.5,74.5,224.5z"/>
	
		<linearGradient id="SVGID_00000130611359845276316470000001001613213032428686_" gradientUnits="userSpaceOnUse" x1="27.4733" y1="221.2529" x2="228.2558" y2="220.4444">
		<stop  offset="0" style="stop-color:#3189C9"/>
		<stop  offset="1" style="stop-color:#5BC0A2"/>
	</linearGradient>
	<path style="fill:url(#SVGID_00000130611359845276316470000001001613213032428686_);" d="M86.2,215.9l-4,10.2h2.1l0.9-2.3h4.1
		l0.9,2.3h2.3l-4-10.2H86.2z M85.9,222.2l1.5-4.2h0l1.5,4.2H85.9z"/>
	
		<linearGradient id="SVGID_00000078002799943525172020000018399508183240080015_" gradientUnits="userSpaceOnUse" x1="27.4734" y1="221.2777" x2="228.2558" y2="220.4692">
		<stop  offset="0" style="stop-color:#3189C9"/>
		<stop  offset="1" style="stop-color:#5BC0A2"/>
	</linearGradient>
	<polygon style="fill:url(#SVGID_00000078002799943525172020000018399508183240080015_);" points="93.1,217.5 96,217.5 96,226.1 
		98,226.1 98,217.5 100.9,217.5 100.9,215.9 93.1,215.9 	"/>
	
		<linearGradient id="SVGID_00000051364683864998002530000002701302683983611561_" gradientUnits="userSpaceOnUse" x1="27.4736" y1="221.3302" x2="228.2561" y2="220.5217">
		<stop  offset="0" style="stop-color:#3189C9"/>
		<stop  offset="1" style="stop-color:#5BC0A2"/>
	</linearGradient>
	<path style="fill:url(#SVGID_00000051364683864998002530000002701302683983611561_);" d="M105.4,215.9l-4,10.2h2.1l0.9-2.3h4.1
		l0.9,2.3h2.3l-4-10.2H105.4z M105,222.2l1.5-4.2h0l1.5,4.2H105z"/>
	
		<linearGradient id="SVGID_00000146467510915422850000000009528356959335850407_" gradientUnits="userSpaceOnUse" x1="27.4738" y1="221.3802" x2="228.2563" y2="220.5717">
		<stop  offset="0" style="stop-color:#3189C9"/>
		<stop  offset="1" style="stop-color:#5BC0A2"/>
	</linearGradient>
	<polygon style="fill:url(#SVGID_00000146467510915422850000000009528356959335850407_);" points="120,226.1 122,226.1 122,221.6 
		125.5,221.6 125.5,220 122,220 122,217.5 125.6,217.5 125.6,215.9 120,215.9 	"/>
	
		<linearGradient id="SVGID_00000108309140495069069060000017766610028331050679_" gradientUnits="userSpaceOnUse" x1="27.4739" y1="221.4147" x2="228.2564" y2="220.6062">
		<stop  offset="0" style="stop-color:#3189C9"/>
		<stop  offset="1" style="stop-color:#5BC0A2"/>
	</linearGradient>
	
		<rect x="128.5" y="215.9" style="fill:url(#SVGID_00000108309140495069069060000017766610028331050679_);" width="2" height="10.2"/>
	
		<linearGradient id="SVGID_00000180325156931541669430000013860616223469048723_" gradientUnits="userSpaceOnUse" x1="27.474" y1="221.4455" x2="228.2565" y2="220.637">
		<stop  offset="0" style="stop-color:#3189C9"/>
		<stop  offset="1" style="stop-color:#5BC0A2"/>
	</linearGradient>
	<polygon style="fill:url(#SVGID_00000180325156931541669430000013860616223469048723_);" points="136.3,215.9 134.2,215.9 
		134.2,226.1 140.2,226.1 140.2,224.5 136.3,224.5 	"/>
	
		<linearGradient id="SVGID_00000137091123376542515710000010414166566633924768_" gradientUnits="userSpaceOnUse" x1="27.4742" y1="221.4808" x2="228.2567" y2="220.6723">
		<stop  offset="0" style="stop-color:#3189C9"/>
		<stop  offset="1" style="stop-color:#5BC0A2"/>
	</linearGradient>
	<polygon style="fill:url(#SVGID_00000137091123376542515710000010414166566633924768_);" points="145,221.6 148.6,221.6 148.6,220 
		145,220 145,217.5 149,217.5 149,215.9 143,215.9 143,226.1 149,226.1 149,224.5 145,224.5 	"/>
	
		<linearGradient id="SVGID_00000019653701698666478880000010511334045308082337_" gradientUnits="userSpaceOnUse" x1="27.4745" y1="221.5457" x2="228.2569" y2="220.7372">
		<stop  offset="0" style="stop-color:#3189C9"/>
		<stop  offset="1" style="stop-color:#5BC0A2"/>
	</linearGradient>
	<polygon style="fill:url(#SVGID_00000019653701698666478880000010511334045308082337_);" points="164.1,220 160.1,220 160.1,215.9 
		158,215.9 158,226.1 160.1,226.1 160.1,221.6 164.1,221.6 164.1,226.1 166.2,226.1 166.2,215.9 164.1,215.9 	"/>
	
		<linearGradient id="SVGID_00000146502010190770107950000017118198303517976215_" gradientUnits="userSpaceOnUse" x1="27.4746" y1="221.5809" x2="228.2571" y2="220.7723">
		<stop  offset="0" style="stop-color:#3189C9"/>
		<stop  offset="1" style="stop-color:#5BC0A2"/>
	</linearGradient>
	
		<rect x="169.8" y="215.9" style="fill:url(#SVGID_00000146502010190770107950000017118198303517976215_);" width="2" height="10.2"/>
	
		<linearGradient id="SVGID_00000107588027795549750310000014625571784433757579_" gradientUnits="userSpaceOnUse" x1="27.4748" y1="221.6201" x2="228.2572" y2="220.8116">
		<stop  offset="0" style="stop-color:#3189C9"/>
		<stop  offset="1" style="stop-color:#5BC0A2"/>
	</linearGradient>
	<path style="fill:url(#SVGID_00000107588027795549750310000014625571784433757579_);" d="M179.8,221.9h2.2v2.7
		c-0.4,0.1-0.8,0.1-1.3,0.1c-2.2,0-3.5-1.6-3.5-3.6c0-2.1,1.3-3.7,3.7-3.7c0.8,0,1.8,0.2,2.6,0.5l0.1-1.7c-0.9-0.3-1.8-0.4-3-0.4
		c-3.5,0-5.6,2-5.6,5.4c0,3.4,2.3,5.1,5.6,5.1c1.1,0,2.2-0.2,3.3-0.5v-5.5h-4.1V221.9z"/>
	
		<linearGradient id="SVGID_00000016061432874291567460000007220329370642539673_" gradientUnits="userSpaceOnUse" x1="27.4749" y1="221.6643" x2="228.2574" y2="220.8557">
		<stop  offset="0" style="stop-color:#3189C9"/>
		<stop  offset="1" style="stop-color:#5BC0A2"/>
	</linearGradient>
	<polygon style="fill:url(#SVGID_00000016061432874291567460000007220329370642539673_);" points="193.6,220 189.5,220 189.5,215.9 
		187.5,215.9 187.5,226.1 189.5,226.1 189.5,221.6 193.6,221.6 193.6,226.1 195.6,226.1 195.6,215.9 193.6,215.9 	"/>
	
		<linearGradient id="SVGID_00000155844209458022934720000008660952942072470694_" gradientUnits="userSpaceOnUse" x1="27.4751" y1="221.7153" x2="228.2576" y2="220.9068">
		<stop  offset="0" style="stop-color:#3189C9"/>
		<stop  offset="1" style="stop-color:#5BC0A2"/>
	</linearGradient>
	<polygon style="fill:url(#SVGID_00000155844209458022934720000008660952942072470694_);" points="208.8,224.1 208.8,224.1 
		207,215.9 204.2,215.9 202.5,224.1 202.4,224.1 200.5,215.9 198.4,215.9 201.1,226.1 203.7,226.1 205.5,218 205.6,218 207.4,226.1 
		210,226.1 212.7,215.9 210.7,215.9 	"/>
	
		<linearGradient id="SVGID_00000054971211710829389920000006061593343925179556_" gradientUnits="userSpaceOnUse" x1="27.4754" y1="221.7828" x2="228.2579" y2="220.9742">
		<stop  offset="0" style="stop-color:#3189C9"/>
		<stop  offset="1" style="stop-color:#5BC0A2"/>
	</linearGradient>
	<path style="fill:url(#SVGID_00000054971211710829389920000006061593343925179556_);" d="M217.8,215.9l-4,10.2h2.1l0.9-2.3h4.1
		l0.9,2.3h2.3l-4-10.2H217.8z M217.4,222.2l1.5-4.2h0l1.5,4.2H217.4z"/>
	
		<linearGradient id="SVGID_00000103967615447330788810000017070701864231497624_" gradientUnits="userSpaceOnUse" x1="27.4755" y1="221.8083" x2="228.258" y2="220.9998">
		<stop  offset="0" style="stop-color:#3189C9"/>
		<stop  offset="1" style="stop-color:#5BC0A2"/>
	</linearGradient>
	<polygon style="fill:url(#SVGID_00000103967615447330788810000017070701864231497624_);" points="231.7,215.9 229.2,220.2 
		226.8,215.9 224.4,215.9 228.1,222.1 228.1,226.1 230.2,226.1 230.2,222.1 233.8,215.9 	"/>
</g>
</svg>
