<?xml version="1.0" encoding="UTF-8"?><svg id="Layer_2" xmlns="http://www.w3.org/2000/svg" width="306.8789" height="73.796" xmlns:xlink="http://www.w3.org/1999/xlink" viewBox="0 0 306.8789 73.796"><defs><style>.cls-1{fill:url(#linear-gradient);}.cls-2{fill:#fab432;}.cls-3{fill:#fff;}.cls-4{fill:#222;}</style><linearGradient id="linear-gradient" x1="83.7776" y1="49.5857" x2="306.8789" y2="49.5857" gradientUnits="userSpaceOnUse"><stop offset="0" stop-color="#222" stop-opacity="0"/><stop offset=".4396" stop-color="#222"/><stop offset=".5502" stop-color="#232225"/><stop offset=".657" stop-color="#262231"/><stop offset=".7622" stop-color="#2c2444"/><stop offset=".8664" stop-color="#342560"/><stop offset=".969" stop-color="#3e2882"/><stop offset="1" stop-color="#42298f"/></linearGradient></defs><g id="Layer_1-2"><path class="cls-4" d="m87.286,17.1766h7.6293c3.7508,0,6.5575,2.3981,6.5575,5.8178s-2.8066,5.8178-6.5575,5.8178h-4.4396v5.8936h-3.1897v-17.5291Zm7.2722,8.7007c2.1687,0,3.674-1.0973,3.674-2.8829,0-1.7867-1.5053-2.8829-3.674-2.8829h-4.0825v5.7659h4.0825Z"/><path class="cls-4" d="m105.8595,25.9282c0-4.9239,4.2102-9.0578,9.211-9.0578,4.9758,0,9.186,4.1339,9.186,9.0578s-4.2102,9.0838-9.186,9.0838c-5.0008,0-9.211-4.1588-9.211-9.0838Zm15.131,0c0-3.3418-2.7049-6.1489-5.92-6.1489-3.2401,0-5.9704,2.8071-5.9704,6.1489,0,3.3688,2.7303,6.1749,5.9704,6.1749,3.2151,0,5.92-2.8061,5.92-6.1749Z"/><path class="cls-4" d="m141.7581,31.7968v2.9089h-12.1712v-17.5291h3.1643v14.6202h9.007Z"/><path class="cls-4" d="m158.9031,31.7968v2.9089h-12.1712v-17.5291h3.1643v14.6202h9.007Z"/><path class="cls-4" d="m164.0809,17.1766h3.1643v17.5291h-3.1643v-17.5291Z"/><path class="cls-4" d="m173.6993,17.1766h3.1902l9.2613,12.3238v-12.3238h3.1643v17.5291h-3.1643l-9.2613-12.3238v12.3238h-3.1902v-17.5291Z"/><path class="cls-4" d="m207.735,31.5425h-8.4713l-1.3268,3.1632h-3.5463l7.3231-17.5291h3.5463l7.3226,17.5291h-3.5209l-1.3268-3.1632Zm-1.1482-2.7563l-3.0874-7.374-3.0874,7.374h6.1749Z"/><path class="cls-4" d="m220.5421,20.0855h-5.6133v-2.9089h14.3908v2.9089h-5.6133v14.6202h-3.1643v-14.6202Z"/><path class="cls-4" d="m234.6494,17.1766h3.1643v17.5291h-3.1643v-17.5291Z"/><path class="cls-4" d="m243.3751,25.9282c0-4.9239,4.2097-9.0578,9.2115-9.0578,4.9748,0,9.1855,4.1339,9.1855,9.0578s-4.2107,9.0838-9.1855,9.0838c-5.0018,0-9.2115-4.1588-9.2115-9.0838Zm15.131,0c0-3.3418-2.7044-6.1489-5.9195-6.1489-3.2411,0-5.9714,2.8071-5.9714,6.1489,0,3.3688,2.7303,6.1749,5.9714,6.1749,3.2151,0,5.9195-2.8061,5.9195-6.1749Z"/><path class="cls-4" d="m267.485,17.1766h3.1902l9.2613,12.3238v-12.3238h3.1643v17.5291h-3.1643l-9.2613-12.3238v12.3238h-3.1902v-17.5291Z"/><path class="cls-4" d="m298.5868,25.9282l6.5061,8.7775h-3.7757l-4.6187-6.2258-4.6436,6.2258h-3.7508l6.5061-8.7516-6.5061-8.7775h3.8017l4.6187,6.2258,4.6436-6.2258h3.7249l-6.5061,8.7516Z"/><path class="cls-2" d="m29.681,0L0,17.1584v34.4662l27.2193,15.7079,2.1682,6.4635h.6327l2.1336-6.4698,27.1841-15.7026V17.1584L29.681,0Zm12.211,57.5852l-12.2109,7.05-12.2351-7.0639-.0004-6.8008,12.2355,7.0641,12.2355-7.0641-.0245,6.8148Zm-12.2109-3.8692l-12.2355-7.0641.0004-6.8004,12.2351,7.0639,12.2109-7.05.0245,6.7864-12.2355,7.0641Zm12.2109-17.9692l-12.2109,7.05-12.2351-7.0639v-6.8006l12.2351,7.0639,12.2109-7.05v6.8006Zm-12.2109-3.8692l-10.2864-5.9389,10.2864-5.9389,10.2864,5.9389-10.2864,5.9389Zm-3.8213-13.7901l-10.1918,5.8843-10.1958-5.8866,10.1918-5.8843,10.1959,5.8866Zm17.8224,5.8773l-10.1798-5.8773,10.1838-5.8796,10.1798,5.8773-10.1838,5.8796Zm-3.6233-13.8179l-10.3778,5.9916-10.3778-5.9916,10.3778-5.9916,10.3778,5.9916ZM3.5385,21.0547l10.3402,5.9699v6.6984l-10.3402-5.9699v-6.6984Zm0,10.7843l10.3402,5.9699v6.8211l-10.3402-5.9699v-6.8211Zm0,10.907l10.3402,5.9699v6.8347l-10.3402-5.9699v-6.8347Zm52.2609,6.8347l-10.3161,5.956v-6.8347l10.3161-5.956v6.8347Zm0-10.9206l-10.3161,5.956v-6.8211l10.3161-5.956v6.8211Zm-10.3161-4.951v-6.6984l10.3161-5.956v6.6984l-10.3161,5.956Z"/><rect class="cls-1" x="83.7776" y="39.8515" width="223.1013" height="19.4684"/><path class="cls-3" d="m172.7266,47.3637h2.2295c2.0938,0,3.5801,1.3135,3.5801,3.1719s-1.4863,3.1807-3.5801,3.1807h-2.2295v-6.3525Zm2.4014,5.1133c1.1875,0,2.0303-.8047,2.0303-1.9414,0-1.1279-.8428-1.9326-2.0303-1.9326h-1.0693v3.874h1.0693Z"/><path class="cls-3" d="m182.087,48.5932v1.2676h3.127v1.2295h-3.127v1.3965h3.4531v1.2295h-4.7949v-6.3525h4.7949v1.2295h-3.4531Z"/><path class="cls-3" d="m187.4854,50.5356c0-1.7852,1.5225-3.2832,3.3076-3.2832.9424,0,1.8125.4072,2.4199,1.0635l-.9697.8877c-.3623-.4248-.8789-.7119-1.4502-.7119-1.042,0-1.9307.9434-1.9307,2.0439,0,1.1094.8887,2.0527,1.9307,2.0527.5713,0,1.0879-.2871,1.4502-.7119l.9697.8877c-.6074.6475-1.4775,1.0635-2.4199,1.0635-1.7852,0-3.3076-1.5078-3.3076-3.292Z"/><path class="cls-3" d="m196.5548,48.5932v1.2676h3.127v1.2295h-3.127v1.3965h3.4531v1.2295h-4.7949v-6.3525h4.7949v1.2295h-3.4531Z"/><path class="cls-3" d="m202.252,47.3637h1.332l3,4.1055v-4.1055h1.3418v6.3525h-1.3418l-3-4.1055v4.1055h-1.332v-6.3525Z"/><path class="cls-3" d="m212.001,48.5932h-1.9395v-1.2295h5.2207v1.2295h-1.9395v5.123h-1.3418v-5.123Z"/><path class="cls-3" d="m221.0977,53.7163l-1.4229-2.0625h-.9883v2.0625h-1.332v-6.3525h2.8008c1.3506,0,2.3477.8877,2.3477,2.1455,0,.9434-.5625,1.6826-1.4141,1.9873l1.5322,2.2197h-1.5234Zm-2.4111-3.3105h1.3242c.6611,0,1.1143-.3516,1.1143-.8965,0-.5459-.4531-.8975-1.1143-.8975h-1.3242v1.7939Z"/><path class="cls-3" d="m228.8448,52.7172h-2.7744l-.3984.999h-1.4951l2.5371-6.3525h1.4961l2.5381,6.3525h-1.5049l-.3984-.999Zm-.4629-1.1553l-.9248-2.3213-.9238,2.3213h1.8486Z"/><path class="cls-3" d="m237.0538,52.4868v1.2295h-4.4414v-6.3525h1.3408v5.123h3.1006Z"/><path class="cls-3" d="m239.1065,47.3637h1.3408v6.3525h-1.3408v-6.3525Z"/><path class="cls-3" d="m242.671,52.6801l3.2725-4.0869h-3.2002v-1.2295h5.04v1.0352l-3.2725,4.0879h3.3086v1.2295h-5.1387l-.0098-1.0361Z"/><path class="cls-3" d="m251.3692,48.5932v1.2676h3.127v1.2295h-3.127v1.3965h3.4531v1.2295h-4.7949v-6.3525h4.7949v1.2295h-3.4531Z"/><path class="cls-3" d="m257.0665,47.3637h2.2295c2.0938,0,3.5801,1.3135,3.5801,3.1719s-1.4863,3.1807-3.5801,3.1807h-2.2295v-6.3525Zm2.4014,5.1133c1.1875,0,2.0303-.8047,2.0303-1.9414,0-1.1279-.8428-1.9326-2.0303-1.9326h-1.0693v3.874h1.0693Z"/><path class="cls-3" d="m268.8399,47.3637h2.2295c2.0938,0,3.5801,1.3135,3.5801,3.1719s-1.4863,3.1807-3.5801,3.1807h-2.2295v-6.3525Zm2.4014,5.1133c1.1875,0,2.0303-.8047,2.0303-1.9414,0-1.1279-.8428-1.9326-2.0303-1.9326h-1.0693v3.874h1.0693Z"/><path class="cls-3" d="m280.6016,53.7163l-1.4229-2.0625h-.9883v2.0625h-1.332v-6.3525h2.8008c1.3506,0,2.3477.8877,2.3477,2.1455,0,.9434-.5625,1.6826-1.4141,1.9873l1.5322,2.2197h-1.5234Zm-2.4111-3.3105h1.3242c.6611,0,1.1143-.3516,1.1143-.8965,0-.5459-.4531-.8975-1.1143-.8975h-1.3242v1.7939Z"/><path class="cls-3" d="m284.1973,47.3637h1.3408v6.3525h-1.3408v-6.3525Z"/><path class="cls-3" d="m294.0255,47.3637l-2.5381,6.3525h-1.4961l-2.5371-6.3525h1.5039l1.7861,4.4756,1.7852-4.4756h1.4961Z"/><path class="cls-3" d="m297.2764,48.5932v1.2676h3.127v1.2295h-3.127v1.3965h3.4531v1.2295h-4.7949v-6.3525h4.7949v1.2295h-3.4531Z"/></g></svg>