<?xml version="1.0" encoding="UTF-8"?><svg id="Layer_2" xmlns="http://www.w3.org/2000/svg" width="654.0861" height="170.0576" viewBox="0 0 654.0861 170.0576"><defs><style>.cls-1{fill:#fff;stroke-width:0px;}</style></defs><g id="Layer_1-2"><path class="cls-1" d="m204.6496,141.8524v-18.6353h7.8818c1.2598,0,2.3086.2227,3.1484.667.8389.4453,1.5059,1.083,2.002,1.9141.4951.8311.8438,1.8174,1.0449,2.959.2012,1.1421.3018,2.4009.3018,3.7773,0,2.0991-.2393,3.8364-.7178,5.2129-.4785,1.377-1.1963,2.4053-2.1523,3.085-.957.6802-2.166,1.02-3.627,1.02h-7.8818Zm3.7266-3.3491h3.7773c.7725,0,1.3857-.2227,1.8389-.6675s.7842-1.1123.9941-2.002.3154-1.9897.3154-3.2993c0-1.2085-.0674-2.2036-.2021-2.9839-.1338-.7808-.3311-1.3892-.5918-1.8262-.2598-.436-.5879-.7383-.9814-.9062-.3945-.168-.8525-.252-1.373-.252h-3.7773v11.937Z"/><path class="cls-1" d="m228.8244,141.9784c-.4023,0-.8643-.0376-1.3848-.1133s-1.0195-.2476-1.498-.5161-.873-.6758-1.1836-1.2217c-.3115-.5454-.4658-1.2969-.4658-2.2539v-10.4004c0-.8228.126-1.5112.377-2.0649.252-.5542.5879-.9907,1.0078-1.3096.4189-.3188.8818-.5454,1.3848-.6802.5039-.1343.999-.2012,1.4863-.2012,1.2588,0,2.3711.0166,3.3369.0503.9648.0337,1.834.0713,2.6064.1133.7715.042,1.4766.0967,2.1152.1636v3.1226h-6.9512c-.5205,0-.9229.126-1.208.3779-.2861.252-.4287.6382-.4287,1.1582v2.6948l7.3789.2012v2.9468l-7.3789.2012v2.5688c0,.437.0713.7769.2139,1.02.1426.2437.3359.4116.5791.5034.2441.0928.5.1387.7686.1387h7.0264v3.1226c-.7393.0845-1.5576.1514-2.4561.2017-.8975.0503-1.8047.0918-2.7197.126-.915.0332-1.7832.0503-2.6064.0503Z"/><path class="cls-1" d="m248.1144,142.0033c-1.0908,0-2.0518-.1255-2.8828-.3774s-1.5361-.7134-2.1162-1.3853c-.5791-.6714-1.0156-1.6323-1.3096-2.8833-.2939-1.2505-.4404-2.875-.4404-4.873,0-1.9302.1553-3.5132.4658-4.7471s.7598-2.1909,1.3477-2.8706c.5869-.6802,1.3008-1.1543,2.1406-1.4229.8389-.2686,1.7881-.4028,2.8457-.4028.8389,0,1.624.0464,2.3545.1382.7305.0928,1.3887.2017,1.9766.3276s1.083.2642,1.4863.4155v2.896c-.3027-.0669-.71-.1343-1.2217-.2017-.5127-.0669-1.0957-.1216-1.75-.1636-.6553-.042-1.3438-.063-2.0654-.063-.7051,0-1.3057.0801-1.8008.2393-.4951.1597-.8896.4531-1.1836.8813s-.5117,1.0449-.6543,1.8511c-.1426.8057-.2139,1.855-.2139,3.1479,0,1.2427.0625,2.2661.1885,3.0723.126.8057.3311,1.4316.6172,1.876.2852.4453.6758.7554,1.1709.9316s1.1211.2646,1.876.2646c1.2764,0,2.3125-.0254,3.1104-.0757.7969-.0503,1.4395-.1089,1.9268-.1763v2.8711c-.4531.1509-.9746.2812-1.5615.3901-.5879.1094-1.2344.1929-1.9395.252-.7051.0586-1.4941.0879-2.3672.0879Z"/><path class="cls-1" d="m263.4006,141.9784c-.4023,0-.8643-.0376-1.3848-.1133s-1.0195-.2476-1.498-.5161-.873-.6758-1.1836-1.2217c-.3115-.5454-.4658-1.2969-.4658-2.2539v-10.4004c0-.8228.126-1.5112.377-2.0649.252-.5542.5879-.9907,1.0078-1.3096.4189-.3188.8818-.5454,1.3848-.6802.5039-.1343.999-.2012,1.4863-.2012,1.2588,0,2.3711.0166,3.3369.0503.9648.0337,1.834.0713,2.6064.1133.7715.042,1.4766.0967,2.1152.1636v3.1226h-6.9512c-.5205,0-.9229.126-1.208.3779-.2861.252-.4287.6382-.4287,1.1582v2.6948l7.3789.2012v2.9468l-7.3789.2012v2.5688c0,.437.0713.7769.2139,1.02.1426.2437.3359.4116.5791.5034.2441.0928.5.1387.7686.1387h7.0264v3.1226c-.7393.0845-1.5576.1514-2.4561.2017-.8975.0503-1.8047.0918-2.7197.126-.915.0332-1.7832.0503-2.6064.0503Z"/><path class="cls-1" d="m276.5461,141.8524v-18.6353h2.9971l7.8066,12.2891v-12.2891h3.7266v18.6353h-2.9961l-7.7822-12.2896v12.2896h-3.752Z"/><path class="cls-1" d="m300.5705,141.8524v-15.2861h-5.1123v-3.3491h13.9766v3.3491h-5.1367v15.2861h-3.7275Z"/><path class="cls-1" d="m313.968,141.8524v-18.6353h7.7061c.7383,0,1.4268.0879,2.0645.2642s1.2002.4829,1.6875.9194c.4863.4365.8691,1.041,1.1455,1.813.2773.7725.416,1.7627.416,2.9717,0,.856-.084,1.5864-.252,2.1909s-.3906,1.0996-.667,1.4858c-.2773.3862-.5918.6968-.9453.9316-.3525.2354-.7129.4282-1.082.5791l3.4746,7.4795h-3.8027l-2.9961-6.9004c-.2021,0-.4326-.0039-.6924-.0122-.2607-.0083-.5254-.0127-.7939-.0127h-.8057c-.2686,0-.5127-.0083-.7305-.0254v6.9507h-3.7266Zm3.7266-9.897h3.3242c.3359,0,.6377-.0415.9062-.126.2686-.0835.5039-.2305.7061-.4404.2012-.21.3564-.4912.4658-.8438.1084-.3525.1631-.8062.1631-1.3599,0-.5205-.0547-.9526-.1631-1.2969-.1094-.3442-.2646-.6128-.4658-.8062-.2021-.1929-.4375-.3271-.7061-.4028s-.5703-.1133-.9062-.1133h-3.3242v5.3892Z"/><path class="cls-1" d="m331.092,141.8524l5.8428-18.6353h4.709l5.8428,18.6353h-3.8779l-1.1836-3.9033h-6.3467l-1.1582,3.9033h-3.8281Zm5.8682-7.2529h4.583l-2.292-8.1841-2.291,8.1841Z"/><path class="cls-1" d="m356.4514,141.8524c-.957,0-1.7676-.147-2.4307-.4409-.6631-.2935-1.1582-.7637-1.4854-1.4102-.3271-.646-.4912-1.498-.4912-2.5562v-14.228h3.7275v13.624c0,.4028.0713.73.2139.9819s.3398.4243.5918.5161c.252.0928.5371.1387.8564.1387h5.8926v3.3745h-6.875Z"/><path class="cls-1" d="m368.0353,141.8524v-18.6353h3.7275v18.6353h-3.7275Z"/><path class="cls-1" d="m376.8488,141.8524v-2.9966l8.0332-12.2896h-8.0332v-3.3491h12.5918v2.9712l-8.0332,12.3149h8.0332v3.3491h-12.5918Z"/><path class="cls-1" d="m399.0099,141.9784c-.4033,0-.8652-.0376-1.3848-.1133-.5205-.0757-1.0205-.2476-1.499-.5161s-.873-.6758-1.1836-1.2217c-.3105-.5454-.4658-1.2969-.4658-2.2539v-10.4004c0-.8228.126-1.5112.3779-2.0649.252-.5542.5879-.9907,1.0068-1.3096.4199-.3188.8818-.5454,1.3857-.6802.5039-.1343.998-.2012,1.4854-.2012,1.2598,0,2.3711.0166,3.3369.0503.9648.0337,1.834.0713,2.6064.1133s1.4775.0967,2.1152.1636v3.1226h-6.9502c-.5205,0-.9238.126-1.209.3779s-.4277.6382-.4277,1.1582v2.6948l7.3779.2012v2.9468l-7.3779.2012v2.5688c0,.437.0713.7769.2139,1.02.1426.2437.3359.4116.5791.5034.2432.0928.499.1387.7686.1387h7.0254v3.1226c-.7383.0845-1.5576.1514-2.4551.2017-.8984.0503-1.8047.0918-2.7197.126-.915.0332-1.7842.0503-2.6064.0503Z"/><path class="cls-1" d="m412.0295,141.8524v-18.6353h7.8818c1.2598,0,2.3086.2227,3.1484.667.8389.4453,1.5059,1.083,2.002,1.9141.4951.8311.8438,1.8174,1.0449,2.959.2012,1.1421.3018,2.4009.3018,3.7773,0,2.0991-.2393,3.8364-.7178,5.2129-.4785,1.377-1.1963,2.4053-2.1523,3.085-.957.6802-2.166,1.02-3.627,1.02h-7.8818Zm3.7266-3.3491h3.7773c.7725,0,1.3857-.2227,1.8389-.6675s.7842-1.1123.9941-2.002.3154-1.9897.3154-3.2993c0-1.2085-.0674-2.2036-.2021-2.9839-.1338-.7808-.3311-1.3892-.5918-1.8262-.2598-.436-.5879-.7383-.9814-.9062-.3945-.168-.8525-.252-1.373-.252h-3.7773v11.937Z"/><path class="cls-1" d="m440.6877,141.8524v-14.3794c0-.8228.126-1.5112.377-2.0649.252-.5542.5879-.9907,1.0078-1.3096.4189-.3188.8818-.5454,1.3848-.6802.5039-.1343.999-.2012,1.4863-.2012.6045,0,1.3555.0039,2.2539.0122.8975.0088,1.8545.0381,2.8701.0884s1.9941.126,2.9346.2266v3.1226h-7.0264c-.5205,0-.9111.1387-1.1709.4155-.2607.2773-.3906.6421-.3906,1.0957v3.1729l7.3789.2017v2.9463l-7.3789.2017v7.1519h-3.7266Z"/><path class="cls-1" d="m457.8869,141.8524v-18.6353h3.7275v18.6353h-3.7275Z"/><path class="cls-1" d="m471.7629,141.8524c-.957,0-1.7676-.147-2.4307-.4409-.6631-.2935-1.1582-.7637-1.4854-1.4102-.3271-.646-.4912-1.498-.4912-2.5562v-14.228h3.7275v13.624c0,.4028.0713.73.2139.9819s.3398.4243.5918.5161c.252.0928.5371.1387.8564.1387h5.8926v3.3745h-6.875Z"/><path class="cls-1" d="m487.8791,141.9784c-.4023,0-.8643-.0376-1.3848-.1133s-1.0195-.2476-1.498-.5161-.873-.6758-1.1836-1.2217c-.3115-.5454-.4658-1.2969-.4658-2.2539v-10.4004c0-.8228.126-1.5112.377-2.0649.252-.5542.5879-.9907,1.0078-1.3096.4189-.3188.8818-.5454,1.3848-.6802.5039-.1343.999-.2012,1.4863-.2012,1.2588,0,2.3711.0166,3.3369.0503.9648.0337,1.834.0713,2.6064.1133.7715.042,1.4766.0967,2.1152.1636v3.1226h-6.9512c-.5205,0-.9229.126-1.208.3779-.2861.252-.4287.6382-.4287,1.1582v2.6948l7.3789.2012v2.9468l-7.3789.2012v2.5688c0,.437.0713.7769.2139,1.02.1426.2437.3359.4116.5791.5034.2441.0928.5.1387.7686.1387h7.0264v3.1226c-.7393.0845-1.5576.1514-2.4561.2017-.8975.0503-1.8047.0918-2.7197.126-.915.0332-1.7832.0503-2.6064.0503Z"/><path class="cls-1" d="m513.8176,141.8524v-15.2861h-5.1123v-3.3491h13.9766v3.3491h-5.1367v15.2861h-3.7275Z"/><path class="cls-1" d="m527.215,141.8524v-18.6353h7.7061c.7383,0,1.4268.0879,2.0645.2642s1.2002.4829,1.6875.9194c.4863.4365.8691,1.041,1.1455,1.813.2773.7725.416,1.7627.416,2.9717,0,.856-.084,1.5864-.252,2.1909s-.3906,1.0996-.667,1.4858c-.2773.3862-.5918.6968-.9453.9316-.3525.2354-.7129.4282-1.082.5791l3.4746,7.4795h-3.8027l-2.9961-6.9004c-.2021,0-.4326-.0039-.6924-.0122-.2607-.0083-.5254-.0127-.7939-.0127h-.8057c-.2686,0-.5127-.0083-.7305-.0254v6.9507h-3.7266Zm3.7266-9.897h3.3242c.3359,0,.6377-.0415.9062-.126.2686-.0835.5039-.2305.7061-.4404.2012-.21.3564-.4912.4658-.8438.1084-.3525.1631-.8062.1631-1.3599,0-.5205-.0547-.9526-.1631-1.2969-.1094-.3442-.2646-.6128-.4658-.8062-.2021-.1929-.4375-.3271-.7061-.4028s-.5703-.1133-.9062-.1133h-3.3242v5.3892Z"/><path class="cls-1" d="m544.3391,141.8524l5.8428-18.6353h4.709l5.8428,18.6353h-3.8779l-1.1836-3.9033h-6.3467l-1.1582,3.9033h-3.8281Zm5.8682-7.2529h4.583l-2.292-8.1841-2.291,8.1841Z"/><path class="cls-1" d="m565.4172,141.8524v-18.6353h2.9971l7.8066,12.2891v-12.2891h3.7266v18.6353h-2.9961l-7.7822-12.2896v12.2896h-3.752Z"/><path class="cls-1" d="m591.1545,142.0033c-.4873,0-.9863-.0122-1.499-.0376-.5117-.0249-1.0322-.0674-1.5605-.126-.5293-.0586-1.0293-.126-1.499-.2012-.4697-.0757-.8984-.1641-1.2842-.2646v-2.9463c.5039.0503,1.0742.0923,1.7129.126.6377.0337,1.3008.0591,1.9893.0752.6885.0171,1.3428.0254,1.9639.0254.6377,0,1.1875-.0542,1.6494-.1636.4619-.1089.8184-.3022,1.0703-.5791.252-.2773.3779-.6587.3779-1.146v-.6802c0-.5537-.1641-.9775-.4912-1.2715-.3271-.2935-.793-.4409-1.3975-.4409h-1.5869c-1.7793,0-3.1436-.3901-4.0918-1.1709s-1.4229-2.1108-1.4229-3.9917v-.9062c0-1.8135.5205-3.1392,1.5615-3.979,1.041-.8394,2.5264-1.2593,4.457-1.2593.6885,0,1.373.0337,2.0527.1006.6797.0674,1.335.1475,1.9639.2393.6299.0928,1.1709.189,1.625.2896v2.9468c-.7725-.0503-1.6338-.1011-2.582-.1514s-1.8252-.0752-2.6309-.0752c-.5713,0-1.0791.0547-1.5244.1636-.4443.1094-.7842.3145-1.0195.6167s-.3525.7305-.3525,1.2847v.5034c0,.6548.1846,1.125.5537,1.4102.3691.2856.915.4282,1.6377.4282h1.8379c1.125,0,2.0527.2061,2.7832.6172.7295.4116,1.2754.978,1.6367,1.6997.3604.7222.541,1.5449.541,2.4678v1.0581c0,1.4604-.2725,2.5771-.8184,3.3491-.5459.7725-1.3008,1.2969-2.2666,1.5737-.9658.2773-2.0947.4155-3.3867.4155Z"/><path class="cls-1" d="m602.8898,141.8524v-14.3794c0-.8228.126-1.5112.377-2.0649.252-.5542.5879-.9907,1.0078-1.3096.4189-.3188.8818-.5454,1.3848-.6802.5039-.1343.999-.2012,1.4863-.2012.6045,0,1.3555.0039,2.2539.0122.8975.0088,1.8545.0381,2.8701.0884s1.9941.126,2.9346.2266v3.1226h-7.0264c-.5205,0-.9111.1387-1.1709.4155-.2607.2773-.3906.6421-.3906,1.0957v3.1729l7.3789.2017v2.9463l-7.3789.2017v7.1519h-3.7266Z"/><path class="cls-1" d="m624.3703,141.9784c-.4033,0-.8652-.0376-1.3848-.1133-.5205-.0757-1.0205-.2476-1.499-.5161s-.873-.6758-1.1836-1.2217c-.3105-.5454-.4658-1.2969-.4658-2.2539v-10.4004c0-.8228.126-1.5112.3779-2.0649.252-.5542.5879-.9907,1.0068-1.3096.4199-.3188.8818-.5454,1.3857-.6802.5039-.1343.998-.2012,1.4854-.2012,1.2598,0,2.3711.0166,3.3369.0503.9648.0337,1.834.0713,2.6064.1133s1.4775.0967,2.1152.1636v3.1226h-6.9502c-.5205,0-.9238.126-1.209.3779s-.4277.6382-.4277,1.1582v2.6948l7.3779.2012v2.9468l-7.3779.2012v2.5688c0,.437.0713.7769.2139,1.02.1426.2437.3359.4116.5791.5034.2432.0928.499.1387.7686.1387h7.0254v3.1226c-.7383.0845-1.5576.1514-2.4551.2017-.8984.0503-1.8047.0918-2.7197.126-.915.0332-1.7842.0503-2.6064.0503Z"/><path class="cls-1" d="m637.3898,141.8524v-18.6353h7.7061c.7383,0,1.4268.0879,2.0645.2642s1.2002.4829,1.6875.9194c.4863.4365.8691,1.041,1.1455,1.813.2773.7725.416,1.7627.416,2.9717,0,.856-.084,1.5864-.252,2.1909s-.3906,1.0996-.667,1.4858c-.2773.3862-.5918.6968-.9453.9316-.3525.2354-.7129.4282-1.082.5791l3.4746,7.4795h-3.8027l-2.9961-6.9004c-.2021,0-.4326-.0039-.6924-.0122-.2607-.0083-.5254-.0127-.7939-.0127h-.8057c-.2686,0-.5127-.0083-.7305-.0254v6.9507h-3.7266Zm3.7266-9.897h3.3242c.3359,0,.6377-.0415.9062-.126.2686-.0835.5039-.2305.7061-.4404.2012-.21.3564-.4912.4658-.8438.1084-.3525.1631-.8062.1631-1.3599,0-.5205-.0547-.9526-.1631-1.2969-.1094-.3442-.2646-.6128-.4658-.8062-.2021-.1929-.4375-.3271-.7061-.4028s-.5703-.1133-.9062-.1133h-3.3242v5.3892Z"/><path class="cls-1" d="m123.9006,53.3683l-9.9243,9.9245c-2.827,2.8269-2.8271,7.4264-.0002,10.2531,2.8268,2.8268,7.4264,2.8267,10.2532-.0001l9.7839-9.7838c-1.0669-2.301-2.519-4.4307-4.3657-6.2777-1.7043-1.7046-3.6498-3.073-5.7468-4.116Zm-2.1893,17.5677c-1.4154,1.4153-3.7101,1.4153-5.1255,0-1.4153-1.4154-1.4153-3.7101,0-5.1255,1.4154-1.4153,3.7101-1.4153,5.1255,0,1.4154,1.4154,1.4154,3.7101,0,5.1255Z"/><path class="cls-1" d="m145.1533,24.9044C111.9474-8.3015,58.1102-8.3015,24.9044,24.9044s-33.2058,87.043,0,120.2488,87.0431,33.2058,120.2489,0c33.2057-33.2058,33.2057-87.043,0-120.2488Zm-10.8901,67.4477l-.3334.3329-31.9496,31.9443c-7.6243,7.6234-17.761,11.822-28.5427,11.822s-20.9209-4.1993-28.5454-11.8247c-7.624-7.6246-11.8226-17.7621-11.8221-28.5445.0005-10.7827,4.1998-20.9195,11.8246-28.5434l35.9189-35.9139h-3.6108c-1.3906,0-2.5176-1.127-2.5176-2.5176s1.127-2.5176,2.5176-2.5176h10.3438c1.3906,0,2.5177,1.127,2.5177,2.5176v10.3418c0,1.3907-1.1271,2.5176-2.5177,2.5176s-2.5176-1.127-2.5176-2.5176v-3.4689l-35.8726,35.8733c-13.1888,13.5621-12.885,35.3257.6771,48.5148,6.4406,6.263,14.9352,9.7122,23.9188,9.7122s17.4783-3.4492,23.9426-9.7358l31.9495-31.9443c4.1294-4.1285,6.4038-9.618,6.4045-15.4573,0-1.0875-.1045-2.1567-.2594-3.2134l-7.6884,7.6882c-4.9617,4.9619-13.0352,4.962-17.9971.0002-4.9619-4.9619-4.9618-13.0354.0001-17.9972l7.9803-7.9803c-1.2744-.2283-2.5746-.3605-3.8966-.3605-5.8383,0-11.3275,2.2735-15.4564,6.4014l-27.6158,27.6128c-3.5322,3.8061-3.3093,9.7766.4968,13.3088,1.7472,1.6215,4.0222,2.5145,6.406,2.5145s4.6588-.8929,6.4692-2.5754l13.1757-13.1488c.5681-.5485,1.3156-.8506,2.105-.8506.83,0,1.6045.3284,2.1807.9252,1.1405,1.1809,1.1405,3.0304.032,4.1789l-13.1699,13.1331c-2.9816,2.8229-6.8848,4.3777-10.9908,4.3777-4.088,0-7.975-1.5412-10.9515-4.3409-5.9066-6.1548-5.8938-15.7672.0071-21.8771l27.584-27.5569c5.2908-5.3757,12.3589-8.3363,19.9023-8.3363,7.3733,0,14.3284,2.8484,19.584,8.0209,5.3158,5.2316,8.2761,12.2199,8.3357,19.6782.0596,7.4579-2.7887,14.4929-8.0186,19.8069Z"/><polygon class="cls-1" points="267.478 83.9294 253.748 35.1094 245.688 35.1094 231.888 83.9294 219.878 35.1094 211.338 35.1094 226.538 95.6894 235.248 95.6894 249.718 46.8594 264.108 95.6894 272.8179 95.6894 288.028 35.1094 279.558 35.1094 267.478 83.9294"/><path class="cls-1" d="m333.148,77.7694c0-1.92-.3-3.62-.9-5.1-.6-1.48-1.38-2.72-2.34-3.74s-1.97-1.83-3.04-2.47c-1.07-.63-2.1-1.05-3.08-1.27.88-.27,1.81-.66,2.79-1.15.99-.49,1.9-1.19,2.76-2.1.85-.91,1.53-2,2.05-3.29s.78-2.84.78-4.65v-4.93c0-2.96-.6-5.52-1.81-7.69-1.21-2.16-3-3.83-5.38-5.02-2.38-1.18-5.38-1.77-9-1.77-4.05-.05-7.78.05-11.18.33-3.4.27-6.44.6-9.13.99v6.49h17.1c3.83,0,6.67.73,8.51,2.18,1.83,1.45,2.76,3.52,2.76,6.21v3.45c0,2.52-.85,4.3-2.55,5.34-1.7,1.04-3.94,1.64-6.74,1.81l-15.04.66v6.17l15.37.66c1.64.05,3.21.33,4.69.82s2.68,1.3,3.61,2.43,1.4,2.67,1.4,4.65v3.53c0,2.19-.48,3.86-1.44,5.02-.96,1.15-2.29,1.96-3.99,2.42-1.7.47-3.73.7-6.08.7h-19.4v6.49c2.9.38,6.26.68,10.07.9s7.91.33,12.29.33c5.32,0,9.47-1.23,12.45-3.7,2.99-2.47,4.48-6.05,4.48-10.77v-3.93h-.0101Z"/><polygon class="cls-1" points="341.038 95.6894 350.078 95.6894 364.108 72.2294 378.8479 95.6894 387.978 95.6894 369.208 65.8794 388.138 35.1094 379.018 35.1094 364.898 59.0394 349.838 35.1094 340.798 35.1094 359.808 65.3694 341.038 95.6894"/><path class="cls-1" d="m427.308,63.3794c-2.22-1.26-5.06-1.89-8.51-1.89h-6.66c-2.85,0-5.07-.58-6.66-1.73-1.59-1.15-2.38-3.21-2.38-6.17v-2.46c0-2.41.45-4.27,1.36-5.59s2.19-2.23,3.86-2.76c1.67-.52,3.66-.78,5.96-.78,2.68,0,5.55.1,8.59.29,3.04.19,5.79.37,8.26.53v-6.41c-1.37-.27-3.1-.55-5.18-.82s-4.22-.51-6.41-.7-4.25-.29-6.16-.29c-5.81,0-10.29,1.25-13.44,3.74s-4.72,6.64-4.72,12.45v3.29c0,5.59,1.44,9.53,4.32,11.84,2.88,2.3,6.94,3.45,12.2,3.45h6.17c2.74,0,4.78.66,6.12,1.97s2.01,3.21,2.01,5.67v3.54c0,2.19-.54,3.89-1.6,5.1-1.07,1.21-2.52,2.03-4.36,2.47-1.83.44-3.93.66-6.29.66-2.14,0-4.34-.02-6.61-.08-2.27-.05-4.41-.14-6.41-.25s-3.71-.22-5.14-.33v6.41c1.1.27,2.43.49,3.99.66,1.56.16,3.21.33,4.93.49s3.42.29,5.1.37c1.67.08,3.16.12,4.48.12,3.78,0,7.15-.43,10.11-1.27,2.96-.85,5.31-2.43,7.07-4.73,1.75-2.3,2.63-5.59,2.63-9.86v-4.27c0-2.79-.55-5.29-1.65-7.48-1.1-2.19-2.76-3.92-4.98-5.18Z"/><polygon class="cls-1" points="488.998 95.6894 488.998 35.1094 480.778 35.1094 480.778 62.3194 452.748 62.3194 452.748 35.1094 444.448 35.1094 444.448 95.6894 452.748 95.6894 452.748 69.7094 480.778 69.7094 480.778 95.6894 488.998 95.6894"/><path class="cls-1" d="m517.5979,35.1094l-20.22,60.58h8.55l5.26-15.86h23.18l5.34,15.86h8.63l-20.22-60.58s-10.52,0-10.52,0Zm-4.44,37.23l9.62-30,9.53,30h-19.15Z"/><path class="cls-1" d="m589.928,95.6894h8.39l-12.08-25.23c1.26-.33,2.53-.81,3.82-1.44,1.29-.63,2.47-1.56,3.54-2.79s1.93-2.89,2.59-4.97c.66-2.08.99-4.68.99-7.81,0-3.83-.44-6.94-1.32-9.33s-2.08-4.23-3.62-5.55c-1.53-1.31-3.27-2.22-5.22-2.71-1.94-.49-3.96-.74-6.04-.74h-24.25v60.58h8.3v-24.34c.93,0,2.01.03,3.25.08,1.23.05,2.49.08,3.78.08s2.52.01,3.7.04,2.18.04,3,.04l11.1699,24.09Zm-24.9-30.74v-22.44h14.63c1.26,0,2.44.15,3.54.45s2.08.84,2.96,1.6c.88.77,1.56,1.86,2.05,3.29s.74,3.29.74,5.59c0,2.36-.24,4.29-.74,5.8-.49,1.51-1.16,2.69-2.01,3.54-.85.85-1.82,1.43-2.92,1.73s-2.3.45-3.62.45h-14.63v-.01Z"/><path class="cls-1" d="m617.2179,44.3094c1.15-1.04,2.74-1.56,4.77-1.56h23.34v-6.82c-2.36-.11-4.82-.22-7.4-.33s-5.36-.21-8.35-.29-6.26-.15-9.82-.2c-1.48,0-2.97.2-4.48.62-1.51.41-2.87,1.1-4.07,2.05-1.21.96-2.18,2.26-2.92,3.9-.74,1.65-1.11,3.67-1.11,6.08v36c0,2.8.44,5.01,1.32,6.66.88,1.64,2.01,2.87,3.41,3.66,1.4.8,2.86,1.32,4.4,1.56,1.53.25,2.99.37,4.36.37,2.68,0,5.44-.04,8.26-.12s5.63-.19,8.42-.33c2.8-.13,5.45-.29,7.97-.45v-6.82h-23.18c-1.15,0-2.23-.16-3.25-.49-1.01-.33-1.84-.96-2.46-1.89-.63-.93-.94-2.33-.94-4.19v-12.42l26.14-.58v-6.41l-26.14-.49v-12.57c.01-2.25.58-3.89,1.73-4.94Z"/></g></svg>