<?xml version="1.0" encoding="utf-8"?>
<!-- Generator: Adobe Illustrator 27.2.0, SVG Export Plug-In . SVG Version: 6.00 Build 0)  -->
<svg version="1.1" id="Layer_1" xmlns="http://www.w3.org/2000/svg" xmlns:xlink="http://www.w3.org/1999/xlink" x="0px" y="0px"
	 viewBox="0 0 223 256" style="enable-background:new 0 0 223 256;" xml:space="preserve">
<style type="text/css">
	.st0{fill:#FFFFFF;}
</style>
<g>
	<g>
		<polygon class="st0" points="29.55,225.84 22.55,200.96 18.45,200.96 11.42,225.84 5.3,200.96 0.95,200.96 8.69,231.83 
			13.13,231.83 20.5,206.95 27.83,231.83 32.27,231.83 40.02,200.96 35.7,200.96 		"/>
		<path class="st0" d="M63.01,222.7c0-0.98-0.15-1.84-0.46-2.6c-0.31-0.75-0.71-1.39-1.19-1.9s-1-0.93-1.55-1.26
			c-0.54-0.32-1.07-0.54-1.57-0.65c0.45-0.14,0.92-0.33,1.42-0.58c0.5-0.25,0.97-0.61,1.4-1.07c0.43-0.46,0.78-1.02,1.05-1.68
			c0.26-0.66,0.4-1.45,0.4-2.37v-2.51c0-1.51-0.31-2.81-0.92-3.92c-0.61-1.1-1.53-1.95-2.74-2.56c-1.21-0.6-2.74-0.9-4.59-0.9
			c-2.07-0.03-3.96,0.03-5.69,0.17c-1.73,0.14-3.28,0.31-4.65,0.5v3.31h8.71c1.95,0,3.4,0.37,4.33,1.11c0.93,0.74,1.4,1.79,1.4,3.16
			v1.76c0,1.28-0.43,2.19-1.3,2.72c-0.87,0.53-2.01,0.84-3.43,0.92l-7.66,0.33v3.14l7.83,0.33c0.84,0.03,1.63,0.17,2.39,0.42
			c0.75,0.25,1.37,0.66,1.84,1.24s0.71,1.36,0.71,2.37v1.8c0,1.12-0.24,1.97-0.73,2.56s-1.17,1-2.03,1.23
			c-0.87,0.24-1.9,0.36-3.1,0.36h-9.88v3.31c1.48,0.19,3.19,0.35,5.13,0.46c1.94,0.11,4.03,0.17,6.26,0.17
			c2.71,0,4.82-0.63,6.34-1.89c1.52-1.26,2.28-3.08,2.28-5.49V222.7z"/>
		<polygon class="st0" points="67.03,231.83 71.63,231.83 78.78,219.87 86.29,231.83 90.94,231.83 81.38,216.64 91.02,200.96 
			86.37,200.96 79.18,213.15 71.51,200.96 66.9,200.96 76.59,216.38 		"/>
		<path class="st0" d="M110.98,215.37c-1.13-0.64-2.58-0.96-4.33-0.96h-3.39c-1.45,0-2.58-0.29-3.39-0.88
			c-0.81-0.59-1.21-1.63-1.21-3.14v-1.26c0-1.23,0.23-2.18,0.69-2.85c0.46-0.67,1.12-1.14,1.97-1.4c0.85-0.26,1.86-0.4,3.04-0.4
			c1.37,0,2.83,0.05,4.38,0.15c1.55,0.1,2.95,0.19,4.21,0.27v-3.27c-0.7-0.14-1.58-0.28-2.64-0.42c-1.06-0.14-2.15-0.26-3.27-0.36
			s-2.16-0.15-3.14-0.15c-2.96,0-5.24,0.64-6.85,1.91s-2.41,3.39-2.41,6.34v1.68c0,2.85,0.73,4.86,2.2,6.03
			c1.47,1.17,3.54,1.76,6.22,1.76h3.14c1.4,0,2.44,0.33,3.12,1c0.68,0.67,1.03,1.63,1.03,2.89v1.8c0,1.12-0.27,1.98-0.82,2.6
			c-0.54,0.61-1.28,1.03-2.22,1.26c-0.93,0.22-2,0.33-3.2,0.33c-1.09,0-2.21-0.01-3.37-0.04c-1.16-0.03-2.25-0.07-3.27-0.13
			c-1.02-0.06-1.89-0.11-2.62-0.17v3.27c0.56,0.14,1.24,0.25,2.03,0.33c0.79,0.08,1.63,0.17,2.51,0.25s1.74,0.15,2.6,0.19
			c0.85,0.04,1.61,0.06,2.28,0.06c1.93,0,3.64-0.22,5.15-0.65c1.51-0.43,2.71-1.24,3.6-2.41c0.89-1.17,1.34-2.85,1.34-5.03v-2.18
			c0-1.42-0.28-2.69-0.84-3.81C112.95,216.89,112.11,216.01,110.98,215.37z"/>
		<polygon class="st0" points="142.41,231.83 142.41,200.96 138.22,200.96 138.22,214.82 123.94,214.82 123.94,200.96 
			119.71,200.96 119.71,231.83 123.94,231.83 123.94,218.59 138.22,218.59 138.22,231.83 		"/>
		<path class="st0" d="M156.98,200.96l-10.3,30.86h4.36l2.68-8.08h11.81l2.72,8.08h4.4l-10.3-30.86H156.98z M154.71,219.93
			l4.9-15.29l4.86,15.29H154.71z"/>
		<path class="st0" d="M193.83,231.83h4.27l-6.16-12.86c0.64-0.17,1.29-0.41,1.95-0.73c0.66-0.32,1.26-0.8,1.8-1.42
			c0.54-0.63,0.98-1.47,1.32-2.53c0.33-1.06,0.5-2.39,0.5-3.98c0-1.95-0.22-3.54-0.67-4.75c-0.45-1.21-1.06-2.16-1.84-2.83
			c-0.78-0.67-1.67-1.13-2.66-1.38c-0.99-0.25-2.02-0.38-3.08-0.38h-12.35v30.86h4.23v-12.4c0.47,0,1.03,0.01,1.65,0.04
			c0.63,0.03,1.27,0.04,1.93,0.04s1.28,0.01,1.89,0.02c0.6,0.01,1.11,0.02,1.53,0.02L193.83,231.83z M181.14,216.16v-11.43h7.45
			c0.64,0,1.24,0.08,1.8,0.23c0.56,0.15,1.06,0.43,1.51,0.82c0.45,0.39,0.79,0.95,1.05,1.68c0.25,0.73,0.38,1.68,0.38,2.85
			c0,1.2-0.12,2.19-0.38,2.95c-0.25,0.77-0.59,1.37-1.03,1.8c-0.43,0.43-0.93,0.73-1.49,0.88c-0.56,0.15-1.17,0.23-1.84,0.23H181.14
			z"/>
		<path class="st0" d="M207.73,205.65c0.59-0.53,1.4-0.8,2.43-0.8h11.89v-3.47c-1.2-0.06-2.46-0.11-3.77-0.17
			c-1.31-0.06-2.73-0.1-4.25-0.15c-1.52-0.04-3.19-0.08-5-0.1c-0.75,0-1.52,0.1-2.28,0.31c-0.77,0.21-1.46,0.56-2.07,1.05
			c-0.61,0.49-1.11,1.15-1.49,1.99c-0.38,0.84-0.57,1.87-0.57,3.1v18.34c0,1.42,0.22,2.55,0.67,3.39c0.45,0.84,1.03,1.46,1.74,1.86
			c0.71,0.41,1.46,0.67,2.24,0.8c0.78,0.13,1.52,0.19,2.22,0.19c1.37,0,2.77-0.02,4.21-0.06c1.44-0.04,2.87-0.1,4.29-0.17
			c1.42-0.07,2.78-0.15,4.06-0.23v-3.48h-11.81c-0.58,0-1.14-0.08-1.65-0.25c-0.52-0.17-0.93-0.49-1.26-0.96
			c-0.32-0.47-0.48-1.19-0.48-2.14v-6.32l13.32-0.29v-3.27l-13.32-0.25v-6.41C206.85,207.02,207.14,206.18,207.73,205.65z"/>
		<polygon class="st0" points="27.69,252.52 25.92,245.8 24.17,245.8 22.38,252.52 20.84,245.8 18.87,245.8 21.15,255.32 
			23.1,255.32 25.04,248.6 26.97,255.32 28.92,255.32 31.2,245.8 29.23,245.8 		"/>
		<path class="st0" d="M37.97,251.47c0.34-0.33,0.63-0.65,0.85-0.97c0.22-0.32,0.39-0.66,0.51-1.01c0.12-0.35,0.17-0.74,0.17-1.17
			c0-0.55-0.09-1.02-0.27-1.4c-0.18-0.39-0.48-0.68-0.91-0.89c-0.42-0.21-1.01-0.31-1.76-0.31c-0.62,0-1.18,0.03-1.68,0.1
			c-0.5,0.06-0.96,0.14-1.37,0.21v1.49h2.68c0.35,0,0.63,0.04,0.83,0.13c0.2,0.09,0.35,0.21,0.44,0.38c0.09,0.17,0.13,0.37,0.13,0.6
			c0,0.24-0.04,0.46-0.12,0.68c-0.08,0.21-0.2,0.42-0.37,0.64c-0.16,0.21-0.37,0.45-0.63,0.7l-3.18,3.15v1.53h6.5v-1.73h-3.97
			L37.97,251.47z"/>
		<polygon class="st0" points="50.58,252.52 48.8,245.8 47.05,245.8 45.26,252.52 43.73,245.8 41.76,245.8 44.04,255.32 
			45.98,255.32 47.92,248.6 49.86,255.32 51.8,255.32 54.08,245.8 52.11,245.8 		"/>
		<path class="st0" d="M67.68,247.11c-0.25-0.42-0.59-0.75-1.02-0.98c-0.43-0.23-0.97-0.34-1.61-0.34h-4.03v9.53h4.03
			c0.75,0,1.36-0.17,1.85-0.52c0.49-0.35,0.86-0.87,1.1-1.58c0.24-0.7,0.37-1.59,0.37-2.66c0-0.7-0.05-1.35-0.16-1.93
			C68.11,248.04,67.94,247.54,67.68,247.11z M66.3,252.25c-0.11,0.45-0.28,0.8-0.51,1.02c-0.23,0.23-0.54,0.34-0.94,0.34h-1.93v-6.1
			h1.93c0.27,0,0.5,0.04,0.7,0.13c0.2,0.09,0.37,0.24,0.5,0.46c0.13,0.22,0.23,0.53,0.3,0.93c0.07,0.4,0.1,0.91,0.1,1.53
			C66.47,251.23,66.41,251.79,66.3,252.25z"/>
		<path class="st0" d="M73.32,245.8l-2.99,9.53h1.96l0.59-2h3.25l0.6,2h1.98l-2.99-9.53H73.32z M73.33,251.62l1.17-4.18l1.17,4.18
			H73.33z"/>
		<polygon class="st0" points="79.78,247.51 82.39,247.51 82.39,255.32 84.3,255.32 84.3,247.51 86.93,247.51 86.93,245.8 
			79.78,245.8 		"/>
		<path class="st0" d="M90.98,245.8l-2.99,9.53h1.96l0.59-2h3.25l0.6,2h1.98l-2.99-9.53H90.98z M90.99,251.62l1.17-4.18l1.17,4.18
			H90.99z"/>
		<path class="st0" d="M106.65,245.8c-0.46,0-0.84-0.01-1.15-0.01c-0.25,0-0.5,0.03-0.76,0.1c-0.26,0.07-0.49,0.18-0.71,0.35
			c-0.21,0.16-0.39,0.39-0.51,0.67c-0.13,0.28-0.19,0.64-0.19,1.06v7.35h1.91v-3.66l3.77-0.1v-1.51l-3.77-0.1v-1.62
			c0-0.23,0.07-0.42,0.2-0.56c0.13-0.14,0.33-0.21,0.6-0.21h3.59v-1.6c-0.48-0.05-0.98-0.09-1.5-0.12
			C107.59,245.82,107.1,245.81,106.65,245.8z"/>
		<rect x="112.11" y="245.8" class="st0" width="1.91" height="9.53"/>
		<path class="st0" d="M119.27,253.53c-0.13-0.05-0.23-0.13-0.3-0.26c-0.07-0.13-0.11-0.3-0.11-0.5v-6.97h-1.91v7.28
			c0,0.54,0.08,0.98,0.25,1.31c0.17,0.33,0.42,0.57,0.76,0.72c0.34,0.15,0.75,0.23,1.24,0.23h3.52v-1.73h-3.01
			C119.54,253.6,119.4,253.57,119.27,253.53z"/>
		<path class="st0" d="M129.01,245.82c-0.49-0.02-1.06-0.03-1.71-0.03c-0.25,0-0.5,0.03-0.76,0.1c-0.26,0.07-0.49,0.18-0.71,0.35
			c-0.21,0.16-0.39,0.39-0.52,0.67c-0.13,0.28-0.19,0.64-0.19,1.06v5.32c0,0.49,0.08,0.87,0.24,1.15c0.16,0.28,0.36,0.49,0.61,0.62
			c0.24,0.14,0.5,0.23,0.77,0.26c0.27,0.04,0.5,0.06,0.71,0.06c0.42,0,0.86-0.01,1.33-0.03c0.47-0.02,0.93-0.04,1.39-0.06
			c0.46-0.03,0.88-0.06,1.26-0.1v-1.6h-3.59c-0.14,0-0.27-0.02-0.39-0.07c-0.12-0.05-0.22-0.13-0.3-0.26
			c-0.07-0.12-0.11-0.3-0.11-0.52v-1.31l3.77-0.1v-1.51l-3.77-0.1v-1.38c0-0.27,0.07-0.46,0.22-0.59c0.15-0.13,0.35-0.19,0.62-0.19
			h3.55v-1.6c-0.33-0.03-0.69-0.06-1.08-0.08C129.95,245.86,129.51,245.84,129.01,245.82z"/>
		<polygon class="st0" points="144.21,249.76 140.62,249.76 140.62,245.8 138.71,245.8 138.71,255.32 140.62,255.32 140.62,251.47 
			144.21,251.47 144.21,255.32 146.13,255.32 146.13,245.8 144.21,245.8 		"/>
		<rect x="149.05" y="245.8" class="st0" width="1.91" height="9.53"/>
		<path class="st0" d="M159.48,249.88c-0.25,0-0.51,0.01-0.78,0.02c-0.27,0.01-0.53,0.03-0.78,0.04c-0.25,0.02-0.46,0.04-0.64,0.06
			v1.51h1.71v1.85c-0.2,0.06-0.46,0.12-0.78,0.18c-0.32,0.06-0.66,0.09-1.01,0.09c-0.31,0-0.57-0.05-0.78-0.14
			c-0.21-0.09-0.38-0.25-0.51-0.48c-0.13-0.23-0.22-0.54-0.28-0.93c-0.06-0.39-0.08-0.9-0.08-1.52c0-0.8,0.05-1.43,0.15-1.89
			c0.1-0.46,0.29-0.79,0.57-0.98c0.28-0.19,0.69-0.29,1.23-0.29c0.39,0,0.78,0.01,1.15,0.03c0.37,0.02,0.7,0.04,1,0.07
			c0.3,0.03,0.54,0.05,0.72,0.08v-1.47c-0.33-0.09-0.65-0.16-0.98-0.23c-0.33-0.06-0.67-0.11-1.04-0.15
			c-0.37-0.03-0.77-0.05-1.2-0.05c-0.72,0-1.31,0.11-1.77,0.33c-0.46,0.22-0.82,0.54-1.07,0.95c-0.25,0.42-0.43,0.93-0.53,1.53
			c-0.1,0.6-0.15,1.28-0.15,2.05c0,0.73,0.04,1.39,0.13,1.98c0.09,0.59,0.24,1.1,0.45,1.53c0.21,0.43,0.51,0.75,0.9,0.98
			c0.38,0.23,0.87,0.34,1.47,0.34c0.53,0,1.03-0.08,1.48-0.24c0.45-0.16,0.81-0.32,1.06-0.46l0.26,0.64h1.43v-5.41
			c-0.18-0.02-0.38-0.03-0.6-0.03C160,249.88,159.76,249.88,159.48,249.88z"/>
		<polygon class="st0" points="169.26,249.76 165.66,249.76 165.66,245.8 163.76,245.8 163.76,255.32 165.66,255.32 165.66,251.47 
			169.26,251.47 169.26,255.32 171.18,255.32 171.18,245.8 169.26,245.8 		"/>
		<polygon class="st0" points="182.31,252.52 180.54,245.8 178.78,245.8 176.99,252.52 175.46,245.8 173.49,245.8 175.77,255.32 
			177.72,255.32 179.66,248.6 181.59,255.32 183.54,255.32 185.82,245.8 183.84,245.8 		"/>
		<path class="st0" d="M190.08,245.8l-2.99,9.53h1.96l0.59-2h3.25l0.6,2h1.98l-2.99-9.53H190.08z M190.09,251.62l1.17-4.18
			l1.17,4.18H190.09z"/>
		<polygon class="st0" points="200.35,250.5 198.47,245.8 196.49,245.8 199.36,252.44 199.36,255.32 201.27,255.32 201.27,252.44 
			204.13,245.8 202.22,245.8 		"/>
	</g>
	<g>
		<path class="st0" d="M151.08,54.86l-9.56,9.55c-2.55,2.55-2.55,6.69,0,9.24c1.23,1.23,2.87,1.91,4.62,1.91
			c1.75,0,3.39-0.68,4.62-1.91l9.43-9.43c-1.04-2.11-2.38-4-4.01-5.62C154.7,57.11,152.98,55.86,151.08,54.86z M149.26,72.05
			c-0.85,0.85-1.96,1.27-3.07,1.27c-1.11,0-2.22-0.42-3.07-1.27c-1.69-1.69-1.69-4.45,0-6.14c1.69-1.69,4.45-1.69,6.14,0
			C150.96,67.61,150.96,70.36,149.26,72.05z"/>
		<path class="st0" d="M172.2,25.52c-33.21-33.21-87.04-33.21-120.25,0c-33.21,33.21-33.21,87.04,0,120.25
			c33.21,33.21,87.04,33.21,120.25,0C205.4,112.56,205.4,58.72,172.2,25.52z M161.82,93.46l-32.29,32.28
			c-7.76,7.76-18.08,12.03-29.05,12.03c-10.97,0-21.29-4.27-29.05-12.03c-7.76-7.76-12.03-18.08-12.03-29.05
			c0-10.97,4.28-21.29,12.03-29.05l34.7-34.69h-1.88c-1.78,0-3.23-1.45-3.23-3.23s1.45-3.23,3.23-3.23h10.34
			c1.78,0,3.23,1.45,3.23,3.23v10.34c0,1.78-1.45,3.23-3.23,3.23c-1.78,0-3.23-1.45-3.23-3.23v-1.74L76.71,72.97
			c-6.24,6.42-9.61,14.9-9.48,23.88c0.12,8.98,3.73,17.37,10.15,23.61c6.31,6.13,14.62,9.51,23.42,9.51s17.12-3.39,23.44-9.53
			l31.94-31.94c3.99-3.99,6.19-9.3,6.19-14.95c0-0.53-0.03-1.08-0.08-1.67l-6.65,6.65c-5.24,5.24-13.77,5.24-19.01,0
			c-2.54-2.53-3.93-5.91-3.93-9.51c0-3.59,1.4-6.97,3.93-9.51l6.97-6.97c-0.81-0.1-1.61-0.14-2.38-0.14
			c-5.65,0-10.96,2.2-14.95,6.19L98.67,86.21c-1.56,1.68-2.38,3.9-2.29,6.22c0.09,2.33,1.07,4.48,2.77,6.05
			c1.61,1.5,3.72,2.32,5.92,2.32s4.33-0.85,5.98-2.38L124.2,85.3c1.46-1.41,3.92-1.36,5.31,0.08c1.41,1.46,1.42,3.73,0.03,5.17
			l-13.18,13.14c-3.13,2.96-7.21,4.59-11.5,4.59c-4.27,0-8.33-1.61-11.44-4.53c-6.2-6.46-6.19-16.5-0.02-22.9L121,53.29
			c5.42-5.51,12.67-8.55,20.41-8.55c7.56,0,14.7,2.92,20.09,8.23c5.45,5.37,8.49,12.54,8.55,20.18
			C170.11,80.8,167.18,88.01,161.82,93.46z"/>
	</g>
</g>
</svg>
