<svg xmlns="http://www.w3.org/2000/svg" xmlns:xlink="http://www.w3.org/1999/xlink" viewBox="0 0 239.87 70.86"><defs><style>.cls-1{font-size:29.22px;fill:#231f20;font-family:Exo-Medium, Exo;font-weight:500;}.cls-2{font-size:8.99px;fill:#318aca;font-family:Exo-Bold, Exo;font-weight:700;letter-spacing:0.1em;}.cls-3{letter-spacing:0.09em;}.cls-4{letter-spacing:0.05em;}.cls-5{fill:url(#linear-gradient);}.cls-6{fill:url(#linear-gradient-2);}</style><linearGradient id="linear-gradient" x1="15.88" y1="67.28" x2="62.68" y2="19.65" gradientUnits="userSpaceOnUse"><stop offset="0" stop-color="#318aca"/><stop offset="1" stop-color="#5bc1a3"/></linearGradient><linearGradient id="linear-gradient-2" x1="8.44" y1="59.97" x2="55.24" y2="12.34" xlink:href="#linear-gradient"/></defs><g id="Layer_2" data-name="Layer 2"><g id="Layer_1-2" data-name="Layer 1"><text class="cls-1" transform="translate(83.18 44.63)">W3XSHARE</text><text class="cls-2" transform="translate(90.82 61.03)">W2W <tspan class="cls-3" x="28.99" y="0">D</tspan><tspan class="cls-4" x="35.91" y="0">AT</tspan><tspan x="48.23" y="0">A FILE TRANS</tspan><tspan class="cls-3" x="116.38" y="0">F</tspan><tspan x="122.42" y="0">ERS</tspan></text><path class="cls-5" d="M53.86,25.3a2.34,2.34,0,1,0,3.31,0A2.34,2.34,0,0,0,53.86,25.3Z"/><path class="cls-6" d="M65.06,17a18,18,0,0,0-25.47.2L21.8,34.92A10.15,10.15,0,0,0,21.8,49,10.31,10.31,0,0,0,36,49l8.49-8.47a2,2,0,0,0-2.78-2.74l-8.5,8.48a6.07,6.07,0,0,1-8.62-8.55L42.35,19.92A14.07,14.07,0,0,1,54.83,16l-5.15,5.14A8.21,8.21,0,0,0,61.29,32.78l5-5a14.35,14.35,0,0,1,.17,2.08,14,14,0,0,1-4.13,10L41.68,60.47A22.13,22.13,0,0,1,10.37,29.19L33.51,6.06V8.29a1.63,1.63,0,1,0,3.25,0V1.62A1.63,1.63,0,0,0,35.14,0H28.46a1.63,1.63,0,0,0,0,3.25h2.33L7.63,26.41A26,26,0,1,0,44.44,63.23l20.61-20.6.22-.22A18,18,0,0,0,65.06,17ZM58.79,30.28a4.67,4.67,0,1,1-6.61-6.61l6.4-6.4a14.12,14.12,0,0,1,3.71,2.66,13.93,13.93,0,0,1,2.81,4Z"/></g></g></svg>