<?xml version="1.0" encoding="utf-8"?>
<!-- Generator: Adobe Illustrator 27.2.0, SVG Export Plug-In . SVG Version: 6.00 Build 0)  -->
<svg version="1.1" id="Layer_1" xmlns="http://www.w3.org/2000/svg" xmlns:xlink="http://www.w3.org/1999/xlink" x="0px" y="0px"
	 viewBox="0 0 648.5 172" style="enable-background:new 0 0 648.5 172;" xml:space="preserve">
<style type="text/css">
	.st0{fill:#FFFFFF;}
</style>
<g>
	<g>
		<polygon class="st0" points="268.37,84.66 254.64,35.84 246.58,35.84 232.78,84.66 220.77,35.84 212.23,35.84 227.43,96.42 
			236.14,96.42 250.61,47.59 265,96.42 273.71,96.42 288.92,35.84 280.45,35.84 		"/>
		<path class="st0" d="M334.04,78.5c0-1.92-0.3-3.62-0.9-5.1c-0.6-1.48-1.38-2.72-2.34-3.74s-1.97-1.83-3.04-2.47
			c-1.07-0.63-2.1-1.05-3.08-1.27c0.88-0.27,1.81-0.66,2.79-1.15c0.99-0.49,1.9-1.19,2.76-2.1c0.85-0.91,1.53-2,2.05-3.29
			c0.52-1.29,0.78-2.84,0.78-4.65v-4.93c0-2.96-0.6-5.52-1.81-7.69c-1.21-2.16-3-3.83-5.38-5.02c-2.38-1.18-5.38-1.77-9-1.77
			c-4.05-0.05-7.78,0.05-11.18,0.33c-3.4,0.27-6.44,0.6-9.13,0.99v6.49h17.1c3.83,0,6.67,0.73,8.51,2.18
			c1.83,1.45,2.76,3.52,2.76,6.21v3.45c0,2.52-0.85,4.3-2.55,5.34c-1.7,1.04-3.94,1.64-6.74,1.81l-15.04,0.66v6.17l15.37,0.66
			c1.64,0.05,3.21,0.33,4.69,0.82c1.48,0.49,2.68,1.3,3.61,2.43s1.4,2.67,1.4,4.65v3.53c0,2.19-0.48,3.86-1.44,5.02
			c-0.96,1.15-2.29,1.96-3.99,2.42c-1.7,0.47-3.73,0.7-6.08,0.7h-19.4v6.49c2.9,0.38,6.26,0.68,10.07,0.9
			c3.81,0.22,7.91,0.33,12.29,0.33c5.32,0,9.47-1.23,12.45-3.7c2.99-2.47,4.48-6.05,4.48-10.77V78.5z"/>
		<polygon class="st0" points="341.93,96.42 350.97,96.42 365,72.96 379.74,96.42 388.87,96.42 370.1,66.61 389.03,35.84 
			379.91,35.84 365.79,59.77 350.73,35.84 341.69,35.84 360.7,66.1 		"/>
		<path class="st0" d="M428.2,64.11c-2.22-1.26-5.06-1.89-8.51-1.89h-6.66c-2.85,0-5.07-0.58-6.66-1.73
			c-1.59-1.15-2.38-3.21-2.38-6.17v-2.46c0-2.41,0.45-4.27,1.36-5.59s2.19-2.23,3.86-2.76c1.67-0.52,3.66-0.78,5.96-0.78
			c2.68,0,5.55,0.1,8.59,0.29c3.04,0.19,5.79,0.37,8.26,0.53v-6.41c-1.37-0.27-3.1-0.55-5.18-0.82c-2.08-0.27-4.22-0.51-6.41-0.7
			s-4.25-0.29-6.16-0.29c-5.81,0-10.29,1.25-13.44,3.74c-3.15,2.49-4.72,6.64-4.72,12.45v3.29c0,5.59,1.44,9.53,4.32,11.84
			c2.88,2.3,6.94,3.45,12.2,3.45h6.17c2.74,0,4.78,0.66,6.12,1.97c1.34,1.31,2.01,3.21,2.01,5.67v3.54c0,2.19-0.54,3.89-1.6,5.1
			c-1.07,1.21-2.52,2.03-4.36,2.47c-1.83,0.44-3.93,0.66-6.29,0.66c-2.14,0-4.34-0.02-6.61-0.08c-2.27-0.05-4.41-0.14-6.41-0.25
			c-2-0.11-3.71-0.22-5.14-0.33v6.41c1.1,0.27,2.43,0.49,3.99,0.66c1.56,0.16,3.21,0.33,4.93,0.49s3.42,0.29,5.1,0.37
			c1.67,0.08,3.16,0.12,4.48,0.12c3.78,0,7.15-0.43,10.11-1.27c2.96-0.85,5.31-2.43,7.07-4.73c1.75-2.3,2.63-5.59,2.63-9.86v-4.27
			c0-2.79-0.55-5.29-1.65-7.48C432.08,67.1,430.42,65.37,428.2,64.11z"/>
		<polygon class="st0" points="489.89,96.42 489.89,35.84 481.67,35.84 481.67,63.05 453.64,63.05 453.64,35.84 445.34,35.84 
			445.34,96.42 453.64,96.42 453.64,70.44 481.67,70.44 481.67,96.42 		"/>
		<path class="st0" d="M518.49,35.84l-20.22,60.58h8.55l5.26-15.86h23.18l5.34,15.86h8.63l-20.22-60.58H518.49z M514.05,73.07
			l9.62-30l9.53,30H514.05z"/>
		<path class="st0" d="M590.82,96.42h8.39l-12.08-25.23c1.26-0.33,2.53-0.81,3.82-1.44c1.29-0.63,2.47-1.56,3.54-2.79
			c1.07-1.23,1.93-2.89,2.59-4.97c0.66-2.08,0.99-4.68,0.99-7.81c0-3.83-0.44-6.94-1.32-9.33s-2.08-4.23-3.62-5.55
			c-1.53-1.31-3.27-2.22-5.22-2.71c-1.94-0.49-3.96-0.74-6.04-0.74h-24.25v60.58h8.3V72.09c0.93,0,2.01,0.03,3.25,0.08
			c1.23,0.05,2.49,0.08,3.78,0.08s2.52,0.01,3.7,0.04c1.18,0.03,2.18,0.04,3,0.04L590.82,96.42z M565.92,65.68V43.24h14.63
			c1.26,0,2.44,0.15,3.54,0.45c1.1,0.3,2.08,0.84,2.96,1.6c0.88,0.77,1.56,1.86,2.05,3.29s0.74,3.29,0.74,5.59
			c0,2.36-0.24,4.29-0.74,5.8c-0.49,1.51-1.16,2.69-2.01,3.54c-0.85,0.85-1.82,1.43-2.92,1.73c-1.1,0.3-2.3,0.45-3.62,0.45H565.92z"
			/>
		<path class="st0" d="M618.11,45.04c1.15-1.04,2.74-1.56,4.77-1.56h23.34v-6.82c-2.36-0.11-4.82-0.22-7.4-0.33
			c-2.58-0.11-5.36-0.21-8.35-0.29c-2.99-0.08-6.26-0.15-9.82-0.2c-1.48,0-2.97,0.2-4.48,0.62c-1.51,0.41-2.87,1.1-4.07,2.05
			c-1.21,0.96-2.18,2.26-2.92,3.9c-0.74,1.65-1.11,3.67-1.11,6.08v36c0,2.8,0.44,5.01,1.32,6.66c0.88,1.64,2.01,2.87,3.41,3.66
			c1.4,0.8,2.86,1.32,4.4,1.56c1.53,0.25,2.99,0.37,4.36,0.37c2.68,0,5.44-0.04,8.26-0.12c2.82-0.08,5.63-0.19,8.42-0.33
			c2.8-0.13,5.45-0.29,7.97-0.45v-6.82h-23.18c-1.15,0-2.23-0.16-3.25-0.49c-1.01-0.33-1.84-0.96-2.46-1.89
			c-0.63-0.93-0.94-2.33-0.94-4.19V70.03l26.14-0.58v-6.41l-26.14-0.49V49.98C616.39,47.73,616.96,46.09,618.11,45.04z"/>
		<polygon class="st0" points="264.73,137.03 261.24,123.84 257.8,123.84 254.29,137.03 251.28,123.84 247.41,123.84 251.89,142.54 
			255.7,142.54 259.52,129.35 263.31,142.54 267.13,142.54 271.6,123.84 267.74,123.84 		"/>
		<path class="st0" d="M284.9,134.99c0.67-0.64,1.23-1.28,1.67-1.91c0.44-0.63,0.77-1.29,1-1.98c0.23-0.69,0.34-1.46,0.34-2.3
			c0-1.08-0.18-2-0.53-2.76c-0.35-0.76-0.95-1.34-1.78-1.74c-0.83-0.4-1.98-0.61-3.45-0.61c-1.21,0-2.31,0.06-3.3,0.19
			c-0.99,0.13-1.88,0.27-2.69,0.42v2.93h5.25c0.69,0,1.24,0.09,1.63,0.25c0.4,0.17,0.68,0.42,0.86,0.75
			c0.18,0.33,0.26,0.72,0.26,1.18c0,0.47-0.08,0.91-0.24,1.33c-0.16,0.41-0.4,0.83-0.72,1.25c-0.32,0.42-0.73,0.88-1.24,1.37
			l-6.24,6.19v3.01h12.77v-3.39h-7.78L284.9,134.99z"/>
		<polygon class="st0" points="309.64,137.03 306.15,123.84 302.72,123.84 299.2,137.03 296.19,123.84 292.33,123.84 296.8,142.54 
			300.62,142.54 304.44,129.35 308.23,142.54 312.04,142.54 316.52,123.84 312.65,123.84 		"/>
		<path class="st0" d="M343.22,126.43c-0.5-0.83-1.17-1.47-2.01-1.92c-0.84-0.45-1.9-0.67-3.16-0.67h-7.91v18.7h7.91
			c1.46,0,2.68-0.34,3.64-1.02c0.96-0.68,1.68-1.71,2.16-3.1c0.48-1.38,0.72-3.12,0.72-5.23c0-1.38-0.1-2.65-0.3-3.79
			C344.07,128.25,343.71,127.26,343.22,126.43z M340.51,136.5c-0.21,0.89-0.54,1.56-1,2.01c-0.45,0.45-1.07,0.67-1.84,0.67h-3.79
			V127.2h3.79c0.52,0,0.98,0.09,1.38,0.25s0.73,0.47,0.99,0.91c0.26,0.44,0.46,1.05,0.59,1.83c0.13,0.79,0.2,1.78,0.2,3
			C340.83,134.5,340.72,135.61,340.51,136.5z"/>
		<path class="st0" d="M354.28,123.84l-5.86,18.7h3.84l1.16-3.92h6.37l1.19,3.92h3.89l-5.86-18.7H354.28z M354.3,135.26l2.3-8.21
			l2.3,8.21H354.3z"/>
		<polygon class="st0" points="366.96,127.2 372.09,127.2 372.09,142.54 375.83,142.54 375.83,127.2 380.99,127.2 380.99,123.84 
			366.96,123.84 		"/>
		<path class="st0" d="M388.95,123.84l-5.86,18.7h3.84l1.16-3.92h6.37l1.19,3.92h3.89l-5.86-18.7H388.95z M388.98,135.26l2.3-8.21
			l2.3,8.21H388.98z"/>
		<path class="st0" d="M419.7,123.85c-0.9-0.01-1.65-0.01-2.26-0.01c-0.49,0-0.99,0.07-1.49,0.2c-0.51,0.13-0.97,0.36-1.39,0.68
			c-0.42,0.32-0.76,0.76-1.01,1.32c-0.25,0.55-0.38,1.25-0.38,2.07v14.43h3.74v-7.18l7.4-0.2v-2.96l-7.4-0.2v-3.18
			c0-0.46,0.13-0.82,0.39-1.1c0.26-0.28,0.65-0.42,1.18-0.42h7.05v-3.13c-0.94-0.1-1.93-0.18-2.94-0.23
			C421.56,123.89,420.6,123.86,419.7,123.85z"/>
		<rect x="430.43" y="123.84" class="st0" width="3.74" height="18.7"/>
		<path class="st0" d="M444.48,139.02c-0.25-0.09-0.45-0.26-0.59-0.52s-0.21-0.58-0.21-0.99v-13.67h-3.74v14.28
			c0,1.06,0.16,1.92,0.49,2.57c0.33,0.65,0.83,1.12,1.49,1.41c0.66,0.29,1.48,0.44,2.44,0.44h6.9v-3.39h-5.91
			C445.02,139.16,444.73,139.11,444.48,139.02z"/>
		<path class="st0" d="M463.6,123.89c-0.97-0.03-2.08-0.05-3.35-0.05c-0.49,0-0.99,0.07-1.49,0.2c-0.51,0.13-0.97,0.36-1.39,0.68
			c-0.42,0.32-0.76,0.76-1.01,1.32c-0.25,0.55-0.38,1.25-0.38,2.07v10.44c0,0.96,0.16,1.71,0.47,2.26c0.31,0.55,0.71,0.96,1.19,1.23
			c0.48,0.27,0.98,0.44,1.5,0.52c0.52,0.07,0.99,0.11,1.39,0.11c0.82,0,1.7-0.02,2.62-0.05c0.92-0.04,1.83-0.08,2.73-0.13
			c0.9-0.05,1.72-0.12,2.46-0.2v-3.13h-7.05c-0.27,0-0.53-0.05-0.77-0.14c-0.24-0.09-0.44-0.26-0.58-0.51
			c-0.14-0.24-0.21-0.59-0.21-1.02v-2.58l7.4-0.2v-2.96l-7.4-0.2v-2.71c0-0.52,0.14-0.91,0.43-1.16c0.29-0.25,0.69-0.38,1.21-0.38
			h6.97v-3.13c-0.64-0.07-1.35-0.12-2.12-0.16C465.44,123.96,464.57,123.92,463.6,123.89z"/>
		<polygon class="st0" points="493.44,131.62 486.39,131.62 486.39,123.84 482.64,123.84 482.64,142.54 486.39,142.54 
			486.39,134.99 493.44,134.99 493.44,142.54 497.2,142.54 497.2,123.84 493.44,123.84 		"/>
		<rect x="502.94" y="123.84" class="st0" width="3.74" height="18.7"/>
		<path class="st0" d="M523.41,131.85c-0.49,0-1,0.01-1.53,0.04c-0.53,0.02-1.04,0.05-1.53,0.09c-0.49,0.03-0.91,0.08-1.26,0.13
			v2.96h3.36v3.64c-0.39,0.12-0.9,0.24-1.53,0.35c-0.63,0.12-1.29,0.18-1.99,0.18c-0.6,0-1.12-0.09-1.53-0.27
			c-0.41-0.18-0.75-0.49-1-0.93c-0.25-0.45-0.43-1.06-0.54-1.83c-0.11-0.77-0.16-1.77-0.16-2.98c0-1.57,0.1-2.8,0.3-3.7
			c0.2-0.9,0.58-1.54,1.13-1.92c0.55-0.38,1.35-0.57,2.41-0.57c0.77,0,1.52,0.02,2.25,0.06c0.73,0.04,1.38,0.09,1.97,0.14
			c0.59,0.05,1.06,0.1,1.41,0.15v-2.88c-0.64-0.17-1.28-0.32-1.92-0.44c-0.64-0.13-1.32-0.23-2.04-0.29c-0.72-0.07-1.5-0.1-2.36-0.1
			c-1.41,0-2.57,0.21-3.47,0.65c-0.9,0.43-1.6,1.05-2.1,1.87c-0.5,0.82-0.84,1.82-1.04,3c-0.2,1.18-0.29,2.52-0.29,4.02
			c0,1.43,0.09,2.73,0.25,3.89c0.17,1.16,0.46,2.16,0.88,2.99c0.42,0.84,1.01,1.48,1.76,1.92c0.75,0.45,1.71,0.67,2.89,0.67
			c1.04,0,2.01-0.16,2.91-0.48c0.89-0.32,1.58-0.62,2.07-0.91l0.51,1.26h2.8v-10.61c-0.35-0.04-0.74-0.05-1.18-0.06
			C524.43,131.86,523.95,131.85,523.41,131.85z"/>
		<polygon class="st0" points="542.59,131.62 535.54,131.62 535.54,123.84 531.8,123.84 531.8,142.54 535.54,142.54 535.54,134.99 
			542.59,134.99 542.59,142.54 546.36,142.54 546.36,123.84 542.59,123.84 		"/>
		<polygon class="st0" points="568.22,137.03 564.73,123.84 561.3,123.84 557.78,137.03 554.77,123.84 550.91,123.84 555.38,142.54 
			559.2,142.54 563.02,129.35 566.81,142.54 570.62,142.54 575.1,123.84 571.23,123.84 		"/>
		<path class="st0" d="M583.46,123.84l-5.86,18.7h3.84l1.16-3.92h6.37l1.19,3.92h3.89l-5.86-18.7H583.46z M583.49,135.26l2.3-8.21
			l2.3,8.21H583.49z"/>
		<polygon class="st0" points="603.63,133.07 599.94,123.84 596.05,123.84 601.68,136.88 601.68,142.54 605.43,142.54 
			605.43,136.88 611.04,123.84 607.3,123.84 		"/>
	</g>
	<g>
		<path class="st0" d="M126.31,55.22l-9.56,9.55c-2.55,2.55-2.55,6.69,0,9.24c1.23,1.23,2.87,1.91,4.62,1.91
			c1.75,0,3.39-0.68,4.62-1.91l9.43-9.43c-1.04-2.11-2.38-4-4.01-5.62C129.92,57.48,128.21,56.22,126.31,55.22z M124.49,72.41
			c-0.85,0.85-1.96,1.27-3.07,1.27c-1.11,0-2.22-0.42-3.07-1.27c-1.69-1.69-1.69-4.45,0-6.14c1.69-1.69,4.45-1.69,6.14,0
			C126.18,67.97,126.18,70.72,124.49,72.41z"/>
		<path class="st0" d="M147.43,25.88c-33.21-33.21-87.04-33.21-120.25,0c-33.21,33.21-33.21,87.04,0,120.25
			c33.21,33.21,87.04,33.21,120.25,0C180.63,112.92,180.63,59.08,147.43,25.88z M137.05,93.83l-32.29,32.28
			c-7.76,7.76-18.08,12.03-29.05,12.03c-10.97,0-21.29-4.27-29.05-12.03c-7.76-7.76-12.03-18.08-12.03-29.05
			c0-10.97,4.28-21.29,12.03-29.05l34.7-34.69h-1.88c-1.78,0-3.23-1.45-3.23-3.23s1.45-3.23,3.23-3.23h10.34
			c1.78,0,3.23,1.45,3.23,3.23v10.34c0,1.78-1.45,3.23-3.23,3.23c-1.78,0-3.23-1.45-3.23-3.23v-1.74L51.94,73.33
			c-6.24,6.42-9.61,14.9-9.48,23.88c0.12,8.98,3.73,17.37,10.15,23.61c6.31,6.13,14.62,9.51,23.42,9.51s17.12-3.39,23.44-9.53
			l31.94-31.94c3.99-3.99,6.19-9.3,6.19-14.95c0-0.53-0.03-1.08-0.08-1.67l-6.65,6.65c-5.24,5.24-13.77,5.24-19.01,0
			c-2.54-2.53-3.93-5.91-3.93-9.51c0-3.59,1.4-6.97,3.93-9.51l6.97-6.97c-0.81-0.1-1.61-0.14-2.38-0.14
			c-5.65,0-10.96,2.2-14.95,6.19L73.9,86.57c-1.56,1.68-2.38,3.9-2.29,6.22c0.09,2.33,1.07,4.48,2.77,6.05
			c1.61,1.5,3.72,2.32,5.92,2.32c2.2,0,4.33-0.85,5.98-2.38l13.16-13.13c1.46-1.41,3.92-1.36,5.31,0.08
			c1.41,1.46,1.42,3.73,0.03,5.17l-13.18,13.14c-3.13,2.96-7.21,4.59-11.5,4.59c-4.27,0-8.33-1.61-11.44-4.53
			c-6.2-6.46-6.19-16.5-0.02-22.9l27.59-27.56c5.42-5.51,12.67-8.55,20.41-8.55c7.56,0,14.7,2.92,20.09,8.23
			c5.45,5.37,8.49,12.54,8.55,20.18C145.33,81.16,142.41,88.37,137.05,93.83z"/>
	</g>
</g>
</svg>
