<?xml version="1.0" encoding="utf-8"?>
<!-- Generator: Adobe Illustrator 24.2.3, SVG Export Plug-In . SVG Version: 6.00 Build 0)  -->
<svg version="1.1" id="Layer_1" xmlns="http://www.w3.org/2000/svg" xmlns:xlink="http://www.w3.org/1999/xlink" x="0px" y="0px"
	 viewBox="0 0 64 64" style="enable-background:new 0 0 64 64;" xml:space="preserve">
<style type="text/css">
	.st0{fill:#ECEFF0;}
	.st1{fill:#F48B76;}
	.st2{fill:#F9EC66;}
	.st3{fill:#647BBD;}
	.st4{fill:#10AED3;}
	.st5{fill:#9D68AA;}
	.st6{fill:#50BB78;}
</style>
<path class="st0" d="M32,0L32,0c17.7,0,32,14.3,32,32l0,0c0,17.7-14.3,32-32,32l0,0C14.3,64,0,49.7,0,32l0,0C0,14.3,14.3,0,32,0z"/>
<path class="st1" d="M32.1,5.8l-0.4,1.2v34.7l0.4,0.4l16.1-9.5L32.1,5.8z"/>
<path class="st2" d="M32.1,5.8L16,32.5L32.1,42V25.2V5.8z"/>
<path class="st3" d="M32.1,45.1l-0.2,0.2v12.4l0.2,0.6l16.1-22.7L32.1,45.1z"/>
<path class="st4" d="M32.1,58.3V45.1L16,35.5L32.1,58.3z"/>
<path class="st5" d="M32.1,42l16.1-9.5l-16.1-7.3V42z"/>
<path class="st6" d="M16,32.5L32.1,42V25.2L16,32.5z"/>
</svg>
