<svg width="64" height="64" viewBox="0 0 64 64" fill="none" xmlns="http://www.w3.org/2000/svg">
<rect width="64" height="64" rx="32" fill="#8247E5"/>
<path d="M32.9423 45.7717C33.7584 45.2956 34.2858 44.3822 34.3486 43.336L34.2807 35.7191L34.3761 30.6321L34.2496 23.1167C34.2539 22.1719 34.7812 21.2585 35.6559 20.681L40.8141 17.8405C41.6302 17.3645 42.7351 17.3258 43.6485 17.8531L48.7228 20.7828C49.5347 21.2515 50.1122 22.1262 50.1509 23.2311L50.1686 29.0599C50.1644 30.0047 49.637 30.9181 48.7623 31.4956L43.6041 34.3361C42.788 34.8122 41.6832 34.8508 40.7698 34.3235L37.4207 32.3899L37.4268 37.5355L40.8774 39.5277C41.6893 39.9964 42.7356 40.0592 43.7118 39.5403L53.1692 34.1752C53.9853 33.6992 54.5126 32.7858 54.5754 31.7395L54.5087 20.6051C54.5715 19.5588 53.994 18.6841 53.1821 18.2153L43.6423 12.7075C42.8304 12.2388 41.7841 12.176 40.8079 12.6949L31.2919 18.1615C30.4758 18.6375 29.9485 19.5509 29.8857 20.5972L29.9106 28.054L29.9168 33.1996L29.9417 40.6564C29.9375 41.6011 29.4102 42.5145 28.5355 43.0921L23.4788 45.9912C22.6627 46.4672 21.5578 46.5059 20.6444 45.9785L15.57 43.0489C14.7581 42.5801 14.1806 41.7054 14.1419 40.6005L14.0657 34.8732C14.0699 33.9284 14.5972 33.0151 15.4719 32.4375L20.5287 29.5384C21.3448 29.0624 22.4496 29.0237 23.363 29.551L26.6106 31.426L26.6044 26.2805L23.2554 24.3469C22.4435 23.8781 21.3972 23.8153 20.421 24.3343L10.905 29.8008C10.0889 30.2769 9.56156 31.1902 9.49876 32.2365L9.52257 43.2109C9.51836 44.1557 10.0373 45.1319 10.9507 45.6592L20.592 51.2256C21.4039 51.6944 22.4501 51.7572 23.4263 51.2382L32.9423 45.7717Z" fill="white"/>
</svg>
