<svg xmlns:xlink="http://www.w3.org/1999/xlink" xmlns="http://www.w3.org/2000/svg" viewBox="0 0 425.17 108.31" width="425.17"  height="108.31" ><defs><style>.cls-3{fill:#fff}</style></defs><g id="Layer_2" data-name="Layer 2"><g id="Layer_1-2" data-name="Layer 1"><polygon points="23.26 25.15 0.11 25.15 0.11 10.6 11.68 2 23.26 10.6 23.26 25.15" fill="#2CD8A7"></polygon><polygon points="4.36 10.6 11.68 5.16 19.01 10.6 4.36 10.6" fill="#FFFFFF"></polygon><polygon class="cls-3" points="359.44 0 359.44 23.15 402.02 23.15 402.02 42.58 359.44 42.58 359.44 65.73 402.02 65.73 402.02 85.15 359.44 85.15 359.44 108.3 425.17 108.3 425.17 0 359.44 0" fill="#FFFFFF"></polygon><polygon class="cls-3" points="327.66 85.15 288.81 85.15 288.81 42.58 265.66 42.58 265.66 108.3 265.66 108.3 265.66 108.3 350.81 108.3 350.81 108.3 350.81 42.58 327.66 42.58 327.66 85.15" fill="#FFFFFF"></polygon><rect class="cls-3" y="42.58" width="23.15" height="65.73" fill="#FFFFFF"></rect><polygon class="cls-3" points="257.02 42.58 148.72 42.58 148.72 108.3 171.87 108.3 171.87 65.73 191.3 65.73 191.3 108.3 214.45 108.3 214.45 65.73 233.87 65.73 233.87 108.3 257.02 108.3 257.02 42.58 257.02 42.58 257.02 42.58" fill="#FFFFFF"></polygon><polygon class="cls-3" points="140.09 42.58 31.79 42.58 31.79 42.58 31.79 108.3 54.94 108.3 54.94 65.73 74.36 65.73 74.36 108.3 97.51 108.3 97.51 65.73 116.94 65.73 116.94 108.3 140.09 108.3 140.09 42.58 140.09 42.58 140.09 42.58" fill="#FFFFFF"></polygon></g></g></svg>