<?xml version="1.0" encoding="UTF-8"?>
<svg xmlns:xodm="http://www.corel.com/coreldraw/odm/2003" xmlns="http://www.w3.org/2000/svg" xmlns:xlink="http://www.w3.org/1999/xlink" version="1.1" id="Layer_1" x="0px" y="0px" viewBox="0 0 2500 532" style="enable-background:new 0 0 2500 532;" xml:space="preserve">
<style type="text/css">
	.st0{fill:#00DACC;}
	.st1{fill:#ffffff;}
</style>
<g id="Layer_x0020_1">
	<g id="_2250718779312">
		<path id="Path_1" class="st0" d="M546,267.6C542.7,119.8,421.9,0,273,0C121.9,0,0,122,0,273c0,109,64.7,207.2,164,250.3    c12.9-19.4,23.7-42.1,30.2-64.7c5.4-14,11.9-28.1,17.3-41c7.6,2.2,16.2,3.2,24.8,3.2c22.7,0,44.2-8.6,60.4-24.8l1.1-1.1l0,0    c-9.7-3.2-19.4-5.4-29.1-5.4c-18.3,0-36.7,6.5-51.8,17.3c7.6-16.2,16.2-31.3,23.7-46.4c8.6,3.2,18.3,5.4,28.1,5.4    c21.6,0,42.1-7.6,57.2-22.7l1.1-1.1l0,0c-10.8-4.3-21.6-6.5-33.4-6.5c-17.3,0-33.4,5.4-47.5,14c8.6-14,17.3-28.1,25.9-39.9    c7.6,2.2,14,3.2,21.6,3.2c23.7,0,47.5-9.7,63.7-28.1l1.1-1.1l0,0c-8.6-3.2-17.3-4.3-25.9-4.3c-17.3,0-34.5,5.4-48.6,15.1    c1.1-1.1,1.1-2.2,2.2-3.2c5.4-7.6,10.8-14,17.3-20.5c35.6-11.9,61.5-42.1,68-78.8V191l0,0c-36.7,9.7-64.7,38.8-72.3,76.6    c-5.4,6.5-10.8,12.9-16.2,20.5c3.2-9.7,5.4-19.4,5.4-30.2c0-14-4.3-29.1-10.8-41l0,0l-1.1,1.1c-10.8,15.1-16.2,32.4-16.2,50.7    c0,12.9,3.2,27,9.7,38.8c-8.6,11.9-17.3,24.8-24.8,37.8c1.1-5.4,1.1-10.8,1.1-16.2c0-21.6-8.6-43.2-23.7-58.3l0,0v1.1    c-4.3,9.7-6.5,20.5-6.5,31.3c0,20.5,7.6,39.9,20.5,56.1c-7.6,14-15.1,28.1-22.7,43.2c1.1-4.3,1.1-9.7,1.1-14    c0-23.7-9.7-46.4-25.9-62.6l0,0v1.1c-3.2,9.7-4.3,19.4-4.3,29.1c0,22.7,8.6,44.2,23.7,60.4c-4.3,10.8-9.7,20.5-14,31.3    c-1.1-1.1-2.2-2.2-4.3-2.2c-7.6-2.2-15.1-5.4-22.7-9.7c-5.4-3.2-11.9-6.5-18.3-8.6c-24.8-7.6-20.5-19.4-33.4-44.2    c-4.3-5.4-8.6-9.7-12.9-14c-4.3-3.2-7.6-6.5-10.8-10.8c-3.2-5.4-4.3-11.9-5.4-18.3c0-7.6-4.3-12.9-11.9-15.1    c-36.7-12.9-20.5-59.3-18.3-65.8c-1.1-7.6-2.2-16.2-5.4-23.7c0-1.1-1.1-2.2-1.1-3.2c0-2.2-1.1-4.3-1.1-6.5    c0-7.6,3.2-15.1,8.6-21.6c4.3-4.3,19.4-11.9,22.7-15.1c3.2-4.3,5.4-8.6,8.6-12.9c9.7-9.7,21.6-18.3,34.5-24.8    c10.8-5.4,11.9-20.5,16.2-24.8c6.5-7.6,17.3-7.6,24.8-15.1c4.3-3.2,9.7-5.4,12.9-8.6c18.3-16.2,41-27,65.8-30.2    c4.3,0,7.6,0,11.9,0c12.9,0,25.9,2.2,38.8,5.4c2.2,0,4.3,1.1,7.6,1.1c37.8,1.1,83.1,8.6,99.3,24.8c8.6,7.6,14,17.3,17.3,28.1    c2.2,8.6,6.5,16.2,10.8,23.7l9.7,16.2c4.3,7.6,6.5,16.2,6.5,23.7c0,3.2,0,7.6-1.1,10.8s-1.1,6.5-1.1,9.7s0,5.4,1.1,8.6    c5.4,7.6,11.9,15.1,18.3,21.6c3.2,3.2,5.4,5.4,8.6,7.6c7.6,4.3,15.1,9.7,22.7,15.1v1.1c0,4.3-2.2,7.6-5.4,9.7    c-6.5,5.4-18.3,15.1-18.3,15.1c0,2.2,1.1,5.4,2.2,7.6c2.2,3.2,6.5,8.6,4.3,12.9c-1.1,4.3-10.8,7.6-7.6,12.9    c2.2,5.4,8.6,6.5,7.6,10.8c-2.2,4.3-10.8,11.9-9.7,15.1s8.6,33.4-8.6,38.8c-20.5,4.3-42.1,6.5-63.7,7.6c-6.5,0-12.9,4.3-16.2,10.8    c-3.2,6.5-5.4,12.9-6.5,19.4c-6.5,24.8-14,48.6-24.8,71.2c-9.7,22.7-1.1,1.1-1.1,3.2c-2.2,4.3-3.2,9.7-4.3,14    c1.1,3.2,3.2,6.5,6.5,9.7c2.2,2.2,5.4,4.3,8.6,4.3c1.1,0,2.2,0,3.2,0c110.1-38.8,184.5-142.4,184.5-260c0-1.1,0-3.2,0-5.4l0,0H546    z"></path>
		<polygon id="Path_2" class="st1" points="788.7,133.8 851.3,133.8 920.4,245 989.4,133.8 1052,133.8 1052,397.1 994.8,397.1     994.8,225.5 920.4,337.8 918.2,337.8 844.8,226.6 844.8,397.1 788.7,397.1   "></polygon>
		<polygon id="Path_3" class="st1" points="1258.1,133.8 1456.6,133.8 1456.6,185.6 1315.3,185.6 1315.3,238.5 1440.4,238.5     1440.4,290.3 1315.3,290.3 1315.3,345.3 1458.8,345.3 1458.8,397.1 1258.1,397.1   "></polygon>
		<polygon id="Path_4" class="st1" points="1714.5,187.8 1634.7,187.8 1634.7,133.8 1852.6,133.8 1852.6,187.8 1772.8,187.8     1772.8,397.1 1714.5,397.1   "></polygon>
		<polygon id="Path_5" class="st1" points="2042.5,133.8 2100.8,133.8 2100.8,397.1 2042.5,397.1   "></polygon>
		<path id="Path_6" class="st1" d="M2291.8,359.3l34.5-41c21.6,19.4,49.6,31.3,78.8,32.4c23.7,0,37.8-9.7,37.8-24.8v-1.1    c0-15.1-8.6-22.7-52.9-33.4c-53.9-12.9-87.4-28.1-87.4-80.9v-1.1c0-47.5,37.8-79.8,91.7-79.8c1.1,0,1.1,0,2.2,0    c34.5,0,68,11.9,96,33.4l-30.2,43.2c-19.4-15.1-43.2-24.8-68-25.9c-22.7,0-33.4,9.7-33.4,22.7v1.1c0,17.3,10.8,22.7,57.2,34.5    c53.9,14,83.1,33.4,83.1,78.8v1.1c0,51.8-39.9,82-97.1,82c-1.1,0-2.2,0-3.2,0c-39.9,0-79.8-15.1-109-42.1l0,0V359.3z"></path>
	</g>
</g>
</svg>
